<svg width="29" height="35" viewBox="0 0 29 35" fill="none" xmlns="http://www.w3.org/2000/svg">
<path d="M27.8429 13.587L15.7324 1.36862C15.5371 1.17178 15.3048 1.01554 15.0488 0.908924C14.7928 0.802309 14.5183 0.747425 14.241 0.747437C13.9639 0.747466 13.6895 0.802369 13.4336 0.908979C13.1778 1.01559 12.9456 1.1718 12.7505 1.36859L7.25543 6.91325V5.2559C7.25543 4.67589 6.78567 4.20616 6.20565 4.20616C5.62564 4.20616 5.15639 4.67589 5.15639 5.2559V8.98329C5.15639 8.99823 5.15965 9.01181 5.16057 9.02674L0.64097 13.587C0.251041 13.9799 0.0322811 14.511 0.0324097 15.0644V32.1535C0.0324097 33.3126 0.972303 34.2525 2.13195 34.2525H26.3515C27.5111 34.2525 28.4514 33.3127 28.4514 32.1535V15.0645C28.4513 14.511 28.2326 13.98 27.8429 13.587ZM22.74 32.1535H16.1839V19.6238H22.74V32.1535ZM24.1389 32.1535V18.9242C24.1389 18.5381 23.8262 18.2249 23.4396 18.2249H15.4843C15.0977 18.2249 14.7841 18.5381 14.7841 18.9242V32.1535H2.13192V15.7641H19.0181C19.4047 15.7641 19.7183 15.451 19.7183 15.0645C19.7183 14.6779 19.4047 14.3648 19.0181 14.3648H2.82504L14.241 2.84651L25.6584 14.3648H23.0522C22.6657 14.3648 22.352 14.6779 22.352 15.0645C22.352 15.451 22.6657 15.7641 23.0522 15.7641H26.3515V32.1535H24.1389Z" fill="#F4B723"/>
</svg>
