<svg width="38" height="38" viewBox="0 0 38 38" fill="none" xmlns="http://www.w3.org/2000/svg">
<path d="M26.7781 16.1084C27.895 14.5211 28.4962 12.6284 28.5 10.6875C28.5 5.44944 24.2381 1.1875 19 1.1875C13.7619 1.1875 9.5 5.44944 9.5 10.6875C9.5 12.6314 10.108 14.5124 11.2219 16.1073C7.98831 18.7946 5.9375 22.9876 5.9375 27.1463V35.625C5.9375 35.9399 6.06261 36.242 6.28531 36.4647C6.50801 36.6874 6.81006 36.8125 7.125 36.8125H30.875C31.1899 36.8125 31.492 36.6874 31.7147 36.4647C31.9374 36.242 32.0625 35.9399 32.0625 35.625V27.1463C32.0625 22.9876 30.0141 18.7957 26.7781 16.1084ZM19 3.5625C22.9294 3.5625 26.125 6.75806 26.125 10.6875C26.1257 12.4168 25.4934 14.0866 24.3473 15.3817L24.3093 15.4221C24.2803 15.448 24.2525 15.4753 24.2262 15.504C22.8879 16.9694 20.9819 17.8125 19 17.8125C17.0181 17.8125 15.1133 16.9706 13.7726 15.504C13.7474 15.4762 13.7209 15.4496 13.6931 15.4244C12.525 14.1229 11.8777 12.4364 11.875 10.6875C11.875 6.75806 15.0706 3.5625 19 3.5625ZM29.6875 34.4375H8.3125V27.1463C8.3125 23.7001 10.0985 20.1008 12.8143 17.8743C14.5321 19.3622 16.7274 20.1832 19 20.1875C21.2723 20.1826 23.4672 19.3612 25.1845 17.8731C27.9015 20.0996 29.6875 23.7001 29.6875 27.1463V34.4375Z" fill="#F4B723"/>
<path d="M23.75 24.9375V22.5625C23.75 22.2476 23.6249 21.9455 23.4022 21.7228C23.1795 21.5001 22.8774 21.375 22.5625 21.375C22.2476 21.375 21.9455 21.5001 21.7228 21.7228C21.5001 21.9455 21.375 22.2476 21.375 22.5625V24.9375H19C18.6851 24.9375 18.383 25.0626 18.1603 25.2853C17.9376 25.508 17.8125 25.8101 17.8125 26.125C17.8125 26.4399 17.9376 26.742 18.1603 26.9647C18.383 27.1874 18.6851 27.3125 19 27.3125H21.375V29.6875C21.375 30.0024 21.5001 30.3045 21.7228 30.5272C21.9455 30.7499 22.2476 30.875 22.5625 30.875C22.8774 30.875 23.1795 30.7499 23.4022 30.5272C23.6249 30.3045 23.75 30.0024 23.75 29.6875V27.3125H26.125C26.4399 27.3125 26.742 27.1874 26.9647 26.9647C27.1874 26.742 27.3125 26.4399 27.3125 26.125C27.3125 25.8101 27.1874 25.508 26.9647 25.2853C26.742 25.0626 26.4399 24.9375 26.125 24.9375H23.75Z" fill="#F4B723"/>
</svg>
