<svg width="42" height="42" viewBox="0 0 42 42" fill="none" xmlns="http://www.w3.org/2000/svg">
<path d="M29.1088 15.4054C28.9283 15.4054 28.7396 15.3685 28.551 15.2947C23.6824 13.3751 18.3176 13.3751 13.449 15.2947C13.0061 15.471 12.5508 15.4341 12.2021 15.2003C11.8904 14.9871 11.7059 14.6384 11.7059 14.2611V5.47144C11.7059 4.83569 12.2021 4.35171 12.6943 4.15894C15.3521 3.10894 18.1453 2.57983 21 2.57983C23.8547 2.57983 26.6479 3.10894 29.3016 4.15894C29.7938 4.35171 30.29 4.83569 30.29 5.47144V14.2611C30.29 14.6384 30.1055 14.9912 29.7938 15.2003C29.5969 15.3357 29.359 15.4054 29.1088 15.4054ZM21 11.8084C23.4773 11.8084 25.9096 12.2062 28.2434 12.9978V5.94722C23.5594 4.18355 18.4406 4.18355 13.7607 5.94722V12.9978C16.0904 12.2103 18.5227 11.8084 21 11.8084ZM34.933 39.2519H7.10391C6.62402 39.2519 6.16875 39.0591 5.82422 38.7023C5.46328 38.3332 5.2582 37.8205 5.2582 37.2914C4.86445 32.9929 5.84883 29.5148 8.17852 26.9595C9.64688 25.3476 11.632 24.1335 14.0807 23.3501C16.2053 22.6693 18.6416 22.3248 21.3158 22.3248C26.4018 22.3248 30.7289 23.9654 33.5016 26.9472C34.691 28.2269 35.577 29.7322 36.1307 31.4261C36.709 33.1898 36.9264 35.1626 36.7787 37.2832C36.7787 37.8205 36.5736 38.3373 36.2086 38.7105C35.8641 39.0591 35.4129 39.2519 34.933 39.2519ZM7.30898 37.2011H34.7279V37.1683C34.9863 33.5384 34.0676 30.5689 31.9963 28.3417C29.6133 25.7824 25.8193 24.3714 21.3076 24.3714C17.6531 24.3714 12.6738 25.0605 9.68789 28.3376C7.75606 30.4623 6.95215 33.4236 7.30078 37.1437C7.30899 37.1642 7.30898 37.1847 7.30898 37.2011Z" fill="#3A7065"/>
<path d="M20.959 24.1295C19.6957 24.1295 18.4611 23.8137 17.284 23.1861C16.2094 22.616 15.2332 21.8162 14.3801 20.8113C13.5762 19.8639 12.9117 18.7482 12.4564 17.5875C11.993 16.398 11.7469 15.1512 11.7469 13.9863H13.7977C13.7977 15.8443 14.6016 17.8992 15.9428 19.4865C17.3578 21.1559 19.142 22.0787 20.959 22.0787C24.9703 22.0787 28.2023 17.6695 28.2023 14.0191H30.2531C30.2531 15.1881 30.0029 16.435 29.5271 17.6244C29.0678 18.7811 28.391 19.8926 27.5748 20.8359C26.7135 21.8326 25.7291 22.6283 24.6463 23.1943C23.4609 23.8137 22.2182 24.1295 20.959 24.1295ZM24.2402 37.5293H21.6973L11.6895 30.1424L16.2832 24.9785L24.2402 37.5293Z" fill="#3A7065"/>
<path d="M20.9713 34.6583L23.6291 36.8731L30.3105 29.9948L26.7012 24.9786L20.9713 34.6583ZM23.6414 7.17778H22.0254V5.56177H19.9746V7.17778H18.3586V9.22856H19.9746V10.8446H22.0254V9.22856H23.6414V7.17778Z" fill="#3A7065"/>
</svg>
