<svg width="50" height="50" viewBox="0 0 50 50" fill="none" xmlns="http://www.w3.org/2000/svg">
<path d="M41.0417 29.7917C40.625 29.375 40.2083 28.9584 39.7917 28.75C38.9583 28.3334 38.125 28.125 37.0833 28.125C37.2917 27.0834 37.5 26.0417 37.5 25C37.5 23.9584 37.2917 22.9167 37.0833 21.875C37.9167 22.0834 38.9583 21.875 39.7917 21.25C40.2083 21.0417 40.625 20.625 41.0417 20.2084C41.4583 21.6667 41.6667 23.3334 41.6667 25C41.6667 26.6667 41.4583 28.3334 41.0417 29.7917ZM37.0833 36.4584C34.7917 38.75 32.0833 40.4167 28.75 41.25C28.9583 40.8334 29.1667 40.2084 29.1667 39.5834C29.1667 38.5417 28.75 37.7084 28.3333 37.0834C30.4167 36.4584 32.2917 35.4167 33.75 33.9584C34.1667 34.7917 34.7917 35.4167 35.4167 36.0417C36.0417 36.25 36.6667 36.4584 37.0833 36.4584ZM8.95834 20.2084C9.37501 20.625 9.79168 21.0417 10.2083 21.25C11.0417 21.6667 11.875 21.875 12.9167 21.875C12.7083 22.9167 12.5 23.9584 12.5 25C12.5 26.0417 12.7083 27.0834 12.9167 28.125C12.0833 27.9167 11.0417 28.125 10.2083 28.75C9.79168 28.9584 9.37501 29.375 8.95834 29.7917C8.54168 28.3334 8.33334 26.6667 8.33334 25C8.33334 23.3334 8.54168 21.6667 8.95834 20.2084ZM12.9167 13.5417C15.2083 11.25 17.9167 9.58337 21.25 8.75004C21.0417 9.37504 20.8333 9.79171 20.8333 10.4167C20.8333 11.4584 21.25 12.2917 21.6667 12.9167C19.5833 13.5417 17.7083 14.5834 16.25 16.0417C15.8333 15.2084 15.2083 14.5834 14.375 14.1667C13.9583 13.75 13.3333 13.5417 12.9167 13.5417ZM12.9167 36.4584C13.5417 36.4584 13.9583 36.25 14.5833 35.8334C15.4167 35.4167 16.0417 34.5834 16.25 33.75C17.7083 35.2084 19.5833 36.25 21.6667 36.875C21.25 37.7084 20.8333 38.5417 20.8333 39.5834C20.8333 40.2084 21.0417 40.625 21.25 41.25C17.9167 40.4167 15 38.75 12.9167 36.4584ZM37.0833 13.5417C36.4583 13.5417 36.0417 13.75 35.4167 14.1667C34.5833 14.5834 33.9583 15.4167 33.75 16.25C32.2917 14.7917 30.4167 13.75 28.3333 13.125C28.75 12.2917 29.1667 11.4584 29.1667 10.4167C29.1667 9.79171 28.9583 9.37504 28.75 8.75004C32.0833 9.58337 35 11.25 37.0833 13.5417ZM25 12.5C23.75 12.5 22.9167 11.6667 22.9167 10.4167C22.9167 9.16671 23.75 8.33337 25 8.33337C26.25 8.33337 27.0833 9.16671 27.0833 10.4167C27.0833 11.6667 26.25 12.5 25 12.5ZM25 41.6667C23.75 41.6667 22.9167 40.8334 22.9167 39.5834C22.9167 38.3334 23.75 37.5 25 37.5C26.25 37.5 27.0833 38.3334 27.0833 39.5834C27.0833 40.8334 26.25 41.6667 25 41.6667ZM35.8333 18.75C35.2083 17.7084 35.625 16.4584 36.6667 15.8334C37.5 15.4167 38.9583 15.625 39.375 16.6667C39.7917 17.7084 39.5833 18.9584 38.5417 19.5834C37.7083 20 36.4583 19.7917 35.8333 18.75ZM10.625 33.3334C10 32.2917 10.4167 31.0417 11.4583 30.4167C12.5 29.7917 13.75 30.2084 14.375 31.25C15 32.2917 14.5833 33.5417 13.5417 34.1667C12.5 34.7917 11.0417 34.375 10.625 33.3334ZM14.1667 18.75C13.5417 19.7917 12.2917 20 11.25 19.5834C10.4167 18.9584 10 17.7084 10.625 16.6667C11.0417 15.625 12.5 15.4167 13.3333 15.8334C14.375 16.4584 14.7917 17.7084 14.1667 18.75ZM39.375 33.3334C38.75 34.375 37.5 34.5834 36.4583 34.1667C35.4167 33.75 35.2083 32.2917 35.625 31.25C36.0417 30.2084 37.5 30 38.5417 30.4167C39.5833 31.0417 40 32.2917 39.375 33.3334ZM25.625 22.7084H32.9167L23.9583 31.6667V27.7084H16.6667L25.625 18.75V22.7084Z" fill="#3A7065"/>
</svg>
