<svg width="46" height="46" viewBox="0 0 46 46" fill="none" xmlns="http://www.w3.org/2000/svg">
<path d="M26.2857 36.1429H6.57143C6.13994 36.1429 5.71268 36.0579 5.31404 35.8927C4.9154 35.7276 4.55318 35.4856 4.24808 35.1805C3.94297 34.8754 3.70095 34.5132 3.53582 34.1145C3.3707 33.7159 3.28571 33.2886 3.28571 32.8571V6.57143C3.28571 5.7 3.63189 4.86427 4.24808 4.24808C4.86427 3.63189 5.7 3.28571 6.57143 3.28571H32.8571C33.2886 3.28571 33.7159 3.3707 34.1145 3.53582C34.5132 3.70095 34.8754 3.94297 35.1805 4.24808C35.4856 4.55318 35.7276 4.9154 35.8927 5.31404C36.0579 5.71268 36.1429 6.13994 36.1429 6.57143V19.9771C36.1429 20.4128 36.316 20.8306 36.6241 21.1386C36.9322 21.4467 37.35 21.6197 37.7857 21.6197C38.2214 21.6197 38.6392 21.4467 38.9473 21.1386C39.2554 20.8306 39.4285 20.4128 39.4286 19.9771V6.57143C39.4286 5.70846 39.2586 4.85393 38.9283 4.05665C38.5981 3.25937 38.1141 2.53494 37.5038 1.92473C36.8936 1.31451 36.1692 0.830465 35.3719 0.50022C34.5746 0.169975 33.7201 -5.89922e-09 32.8571 0L6.57143 0C4.82858 0 3.15711 0.692345 1.92473 1.92473C0.692345 3.15711 0 4.82858 0 6.57143L0 32.8571C-5.89922e-09 33.7201 0.169975 34.5746 0.50022 35.3719C0.830465 36.1692 1.31451 36.8936 1.92473 37.5038C2.53494 38.1141 3.25937 38.5981 4.05665 38.9283C4.85393 39.2586 5.70846 39.4286 6.57143 39.4286H26.2857C26.7214 39.4285 27.1392 39.2554 27.4472 38.9473C27.7553 38.6392 27.9283 38.2214 27.9283 37.7857C27.9283 37.35 27.7553 36.9322 27.4472 36.6241C27.1392 36.316 26.7214 36.1429 26.2857 36.1429ZM7.06429 25.7929C6.90955 25.6438 6.78622 25.4652 6.70158 25.2677C6.61693 25.0702 6.57268 24.8577 6.57143 24.6429V11.5C6.57984 11.0669 6.75563 10.6539 7.06192 10.3476C7.36821 10.0413 7.78121 9.86555 8.21429 9.85714H18.0714C18.5071 9.85714 18.925 10.0302 19.2331 10.3383C19.5412 10.6464 19.7143 11.0643 19.7143 11.5C19.7143 11.9357 19.5412 12.3536 19.2331 12.6617C18.925 12.9698 18.5071 13.1429 18.0714 13.1429H9.85714V16.4286H18.0714C18.5071 16.4286 18.9249 16.6018 19.2329 16.9098C19.541 17.2179 19.714 17.6358 19.714 18.0714C19.714 18.5071 19.541 18.9249 19.2329 19.233C18.9249 19.5411 18.5071 19.7142 18.0714 19.7143H9.85714V23H18.0714C18.5071 23.0001 18.9249 23.1732 19.2329 23.4813C19.541 23.7894 19.714 24.2072 19.714 24.6429C19.714 25.0785 19.541 25.4963 19.2329 25.8044C18.9249 26.1125 18.5071 26.2856 18.0714 26.2857H8.21429C7.99941 26.2845 7.78696 26.2402 7.58945 26.1556C7.39195 26.0709 7.21338 25.9476 7.06429 25.7929ZM23 24.7414V16.8229C23 15.7714 23.5586 15.18 24.5443 15.1471C24.7196 15.1383 24.8949 15.1647 25.0598 15.2247C25.2248 15.2848 25.376 15.3772 25.5047 15.4967C25.6333 15.6161 25.7367 15.7601 25.8088 15.9202C25.8808 16.0802 25.9201 16.2531 25.9243 16.4286C26.248 15.9967 26.6792 15.6572 27.175 15.4439C27.6708 15.2306 28.2138 15.1509 28.75 15.2129C29.2748 15.172 29.8024 15.2403 30.2995 15.4135C30.7966 15.5867 31.2525 15.8609 31.6384 16.219C32.0242 16.5771 32.3317 17.0112 32.5415 17.494C32.7513 17.9768 32.8587 18.4979 32.8571 19.0243V24.7414C32.868 24.9557 32.8322 25.1697 32.7521 25.3687C32.6719 25.5677 32.5495 25.7469 32.3932 25.8938C32.2369 26.0408 32.0504 26.1519 31.8469 26.2196C31.6433 26.2873 31.4274 26.3098 31.2143 26.2857C31.0022 26.3043 30.7887 26.2779 30.5875 26.2082C30.3864 26.1385 30.2023 26.0271 30.0472 25.8813C29.8921 25.7355 29.7695 25.5586 29.6875 25.3622C29.6056 25.1658 29.566 24.9542 29.5714 24.7414V19.7143C29.5714 18.4329 29.1771 17.71 27.9286 17.6114C26.68 17.5129 26.2857 18.2357 26.2857 19.7143V24.7414C26.2912 24.9542 26.2516 25.1658 26.1696 25.3622C26.0876 25.5586 25.9651 25.7355 25.81 25.8813C25.6549 26.0271 25.4707 26.1385 25.2696 26.2082C25.0685 26.2779 24.8549 26.3043 24.6429 26.2857C24.4297 26.3098 24.2138 26.2873 24.0103 26.2196C23.8067 26.1519 23.6203 26.0408 23.464 25.8938C23.3077 25.7469 23.1852 25.5677 23.1051 25.3687C23.025 25.1697 22.9891 24.9557 23 24.7414ZM37.7857 23C38.2214 23 38.6393 23.1731 38.9474 23.4812C39.2555 23.7893 39.4286 24.2071 39.4286 24.6429V44.3571C39.4286 44.7929 39.2555 45.2107 38.9474 45.5188C38.6393 45.8269 38.2214 46 37.7857 46C37.35 46 36.9321 45.8269 36.624 45.5188C36.3159 45.2107 36.1429 44.7929 36.1429 44.3571V24.6429C36.1429 24.2071 36.3159 23.7893 36.624 23.4812C36.9321 23.1731 37.35 23 37.7857 23ZM31.5429 29.5714H44.0286C44.2875 29.5714 44.5438 29.6224 44.783 29.7215C45.0222 29.8206 45.2395 29.9658 45.4226 30.1488C45.6056 30.3319 45.7509 30.5492 45.8499 30.7884C45.949 31.0276 46 31.284 46 31.5429V37.4571C46 37.716 45.949 37.9724 45.8499 38.2116C45.7509 38.4508 45.6056 38.6681 45.4226 38.8512C45.2395 39.0342 45.0222 39.1794 44.783 39.2785C44.5438 39.3776 44.2875 39.4286 44.0286 39.4286H31.5429C31.284 39.4286 31.0276 39.3776 30.7884 39.2785C30.5492 39.1794 30.3319 39.0342 30.1488 38.8512C29.9658 38.6681 29.8206 38.4508 29.7215 38.2116C29.6224 37.9724 29.5714 37.716 29.5714 37.4571V31.5429C29.5714 31.284 29.6224 31.0276 29.7215 30.7884C29.8206 30.5492 29.9658 30.3319 30.1488 30.1488C30.3319 29.9658 30.5492 29.8206 30.7884 29.7215C31.0276 29.6224 31.284 29.5714 31.5429 29.5714ZM33.5143 32.8571C33.428 32.8571 33.3425 32.8741 33.2628 32.9072C33.1831 32.9402 33.1106 32.9886 33.0496 33.0496C32.9886 33.1106 32.9402 33.1831 32.9072 33.2628C32.8741 33.3425 32.8571 33.428 32.8571 33.5143V35.4857C32.8571 35.572 32.8741 35.6575 32.9072 35.7372C32.9402 35.8169 32.9886 35.8894 33.0496 35.9504C33.1106 36.0114 33.1831 36.0598 33.2628 36.0928C33.3425 36.1259 33.428 36.1429 33.5143 36.1429H42.0571C42.1434 36.1429 42.2289 36.1259 42.3086 36.0928C42.3883 36.0598 42.4608 36.0114 42.5218 35.9504C42.5828 35.8894 42.6312 35.8169 42.6643 35.7372C42.6973 35.6575 42.7143 35.572 42.7143 35.4857V33.5143C42.7143 33.428 42.6973 33.3425 42.6643 33.2628C42.6312 33.1831 42.5828 33.1106 42.5218 33.0496C42.4608 32.9886 42.3883 32.9402 42.3086 32.9072C42.2289 32.8741 42.1434 32.8571 42.0571 32.8571H33.5143Z" fill="#3A7065"/>
</svg>
