<svg width="38" height="42" viewBox="0 0 38 42" fill="none" xmlns="http://www.w3.org/2000/svg">
<path fill-rule="evenodd" clip-rule="evenodd" d="M4.41667 0.166656C2.11548 0.166656 0.25 2.03214 0.25 4.33332V39.5417C0.25 40.8073 1.27602 41.8333 2.54167 41.8333H35.4583C36.724 41.8333 37.75 40.8073 37.75 39.5417V18.9167C37.75 16.6155 35.8846 14.75 33.5833 14.75H32.5417C31.9665 14.75 31.5 15.2164 31.5 15.7917V37.6667H29.4167V4.33332C29.4167 2.03214 27.5512 0.166656 25.25 0.166656H4.41667ZM14.8333 6.41666C13.6827 6.41666 12.75 7.34941 12.75 8.49999V10.5833H10.6667C9.51608 10.5833 8.58333 11.5161 8.58333 12.6667C8.58333 13.8172 9.51608 14.75 10.6667 14.75H12.75V16.8333C12.75 17.9839 13.6827 18.9167 14.8333 18.9167C15.984 18.9167 16.9167 17.9839 16.9167 16.8333V14.75H19C20.1506 14.75 21.0833 13.8172 21.0833 12.6667C21.0833 11.5161 20.1506 10.5833 19 10.5833H16.9167V8.49999C16.9167 7.34941 15.984 6.41666 14.8333 6.41666ZM14.8333 25.1667C12.5321 25.1667 10.6667 27.0321 10.6667 29.3333V37.6667H19V29.3333C19 27.0321 17.1346 25.1667 14.8333 25.1667Z" fill="#3A7065"/>
</svg>
