<svg width="50" height="50" viewBox="0 0 50 50" fill="none" xmlns="http://www.w3.org/2000/svg">
<path d="M23.9583 6.25C28.2641 6.25 31.8919 9.15281 32.9917 13.1082L33.0998 13.536L36.9948 12.5622C37.617 12.4066 38.2764 12.5464 38.782 12.9412C39.2154 13.2796 39.4945 13.773 39.5654 14.3111L39.5833 14.5833V18.3533C40.7492 19.4722 41.7161 20.7988 42.4242 22.275L42.7116 22.9167H43.75C44.8184 22.9167 45.6989 23.7209 45.8193 24.757L45.8333 25V31.25C45.8333 31.9515 45.481 32.5993 44.907 32.9825L44.6816 33.1133L42.247 34.3306C41.2487 36.264 39.7994 37.9247 38.0377 39.1749L37.5 39.5375V41.6667C37.5 42.7351 36.6957 43.6156 35.6596 43.736L35.4166 43.75H29.1666C28.0982 43.75 27.2176 42.9458 27.0973 41.9096L27.0833 41.6667H25C25 42.7351 24.1957 43.6156 23.1596 43.736L22.9166 43.75H16.6666C15.5982 43.75 14.7177 42.9458 14.5973 41.9096L14.5833 41.6667V39.5375C11.5984 37.6267 9.41004 34.574 8.63769 30.9931C6.17003 30.2619 4.33952 28.048 4.1782 25.3836L4.16663 25V23.9583C4.16663 22.8077 5.09938 21.875 6.24996 21.875C7.31836 21.875 8.19893 22.6792 8.31928 23.7154L8.33329 23.9583V25C8.33329 25.3088 8.40046 25.6019 8.52098 25.8654C9.17013 22.0008 11.4561 18.6916 14.6416 16.675C14.6031 16.33 14.5833 15.9796 14.5833 15.625C14.5833 10.4473 18.7806 6.25 23.9583 6.25ZM35.4166 17.2516L29.6718 18.6878L29.4212 18.7344L29.1666 18.75H21.875C16.6973 18.75 12.5 22.9473 12.5 28.125C12.5 31.7652 14.5742 34.9246 17.6149 36.479C18.2342 36.7954 18.6493 37.3967 18.734 38.076L18.75 38.334V39.5833H20.8333C20.8333 38.5149 21.6375 37.6344 22.6737 37.514L22.9166 37.5H29.1666C30.2351 37.5 31.1156 38.3042 31.2359 39.3404L31.25 39.5833H33.3333V38.334C33.3333 37.5515 33.7716 36.835 34.4683 36.479C36.3733 35.505 37.9027 33.8973 38.7764 31.9373C38.9334 31.5846 39.1846 31.2845 39.4996 31.0681L39.7475 30.9221L41.6666 29.9625V27.0833H41.2354C40.3031 27.0833 39.4843 26.464 39.2306 25.5671C38.7066 23.7144 37.6245 22.0906 36.1733 20.8921C35.7626 20.5529 35.5 20.0716 35.4334 19.5497L35.4166 19.2857V17.2516ZM33.3333 22.9167C34.4839 22.9167 35.4166 23.8494 35.4166 25C35.4166 26.1506 34.4839 27.0833 33.3333 27.0833C32.1827 27.0833 31.25 26.1506 31.25 25C31.25 23.8494 32.1827 22.9167 33.3333 22.9167ZM23.9583 10.4167C21.3158 10.4167 19.1328 12.3847 18.7952 14.9351C19.7846 14.705 20.8156 14.5833 21.875 14.5833H28.9102L29.055 14.5471C28.5585 12.1879 26.4652 10.4167 23.9583 10.4167Z" fill="#EBB817"/>
</svg>
