<svg width="43" height="43" viewBox="0 0 43 43" fill="none" xmlns="http://www.w3.org/2000/svg">
<path d="M34.7583 21.5L41.3875 14.8708C43.1792 13.0792 43.1792 10.2125 41.3875 8.60001L34.4 1.61251C32.7875 1.21891e-05 29.7417 1.21891e-05 28.1292 1.61251L21.5 8.24168L14.8708 1.61251C13.2583 1.21891e-05 10.2125 1.21891e-05 8.60001 1.61251L1.61251 8.60001C-0.179155 10.3917 -0.179155 13.2583 1.61251 14.8708L8.24168 21.5L5.37501 24.1875C4.83751 24.725 4.47918 25.2625 4.30001 25.9792L0.358345 36.9083C-0.179155 38.3417 0.179178 39.775 0.895845 40.85C1.79168 41.925 3.04584 42.6417 4.47918 42.6417C5.01668 42.6417 5.37501 42.6417 5.91251 42.4625L16.8417 38.5208C17.5583 38.3417 18.0958 37.9833 18.6333 37.4458L21.3208 34.7583L27.95 41.3875C28.8458 42.2833 29.9208 42.6417 31.175 42.6417C32.4292 42.6417 33.5042 42.1042 34.4 41.3875L41.3875 34.4C43.1792 32.6083 43.1792 29.7417 41.3875 28.1292L34.7583 21.5ZM31.3542 3.76251C31.5333 3.76251 31.8917 3.94168 32.0708 3.94168L39.0583 10.9292C39.4167 11.2875 39.4167 11.825 39.0583 12.1833L36.55 14.6917L28.3083 6.45001L30.8167 3.94168C30.8167 3.94168 30.9958 3.76251 31.3542 3.76251ZM8.42085 16.6625L11.6458 13.4375C12.1833 12.9 12.1833 12.0042 11.6458 11.4667C11.1083 10.9292 10.2125 10.9292 9.67501 11.4667L6.45001 14.6917L4.12084 12.3625C3.76251 12.0042 3.76251 11.4667 4.12084 11.1083L11.1083 4.12085C11.2875 3.94168 11.4667 3.94168 11.825 3.94168C12.1833 3.94168 12.3625 4.12085 12.5417 4.12085L18.9917 10.75L10.75 18.9917L8.42085 16.6625ZM16.3042 35.1167C16.3042 35.1167 16.125 35.2958 15.9458 35.2958L5.01668 39.2375C4.65834 39.4167 4.30001 39.2375 4.12084 38.8792C3.94168 38.7 3.94168 38.5208 3.94168 38.1625L7.88334 27.2333C7.88334 27.0542 8.06251 27.0542 8.06251 26.875L12.0042 22.9333L22.7542 12.1833L26.3375 8.60001L34.5792 16.8417L30.9958 20.425L20.2458 31.175L16.3042 35.1167ZM38.8792 31.8917L31.8917 38.8792C31.5333 39.2375 30.9958 39.2375 30.6375 38.8792L28.3083 36.55L31.5333 33.325C32.0708 32.7875 32.0708 31.8917 31.5333 31.3542C30.9958 30.8167 30.1 30.8167 29.5625 31.3542L26.3375 34.5792L24.0083 32.25L32.25 24.0083L38.8792 30.6375C39.2375 30.9958 39.2375 31.5333 38.8792 31.8917Z" fill="#3A7065"/>
</svg>
