<svg width="44" height="44" viewBox="0 0 44 44" fill="none" xmlns="http://www.w3.org/2000/svg">
<path d="M7.98437 9.075C10.0691 9.07748 12.0678 9.90686 13.5418 11.3812C15.0158 12.8555 15.8448 14.8543 15.8469 16.9391C15.8477 18.0667 15.6055 19.1813 15.1369 20.2069C14.6683 21.2326 13.9842 22.1453 13.1312 22.8828C13.4594 27.1125 16.3672 30.5078 20.0406 30.9875C20.7656 29.9664 21.7251 29.1342 22.8386 28.5611C23.952 27.9879 25.1868 27.6905 26.4391 27.6937V27.6922C28.5231 27.6943 30.5212 28.5232 31.9947 29.997C33.4683 31.4708 34.2968 33.4691 34.2984 35.5531C34.2968 37.6371 33.4682 39.6352 31.9946 41.1087C30.5211 42.5823 28.523 43.4108 26.4391 43.4125C11.9266 43.4125 0.125 31.5375 0.125 16.9375C0.127066 14.8533 0.955619 12.8549 2.42896 11.3807C3.90229 9.90649 5.90014 9.07675 7.98437 9.07344V9.075ZM7.98437 12.4078C6.78353 12.4095 5.63235 12.8872 4.78323 13.7364C3.93411 14.5855 3.45634 15.7367 3.45469 16.9375C3.45469 29.7031 13.7641 40.0859 26.4391 40.0859C27.6403 40.0843 28.7919 39.6064 29.6413 38.7569C30.4907 37.9075 30.9687 36.7559 30.9703 35.5547C30.9695 34.353 30.4919 33.2008 29.6423 32.351C28.7928 31.5011 27.6407 31.0231 26.4391 31.0219C25.6068 31.0202 24.7903 31.2484 24.0796 31.6812C23.3688 32.1141 22.7914 32.7348 22.4109 33.475C22.2709 33.7453 22.0592 33.9719 21.7991 34.1301C21.539 34.2883 21.2404 34.3719 20.9359 34.3719H20.9328C17.9125 34.3719 15.0891 33.0719 12.9781 30.7078C10.9109 28.3969 9.77344 25.3344 9.77344 22.0875C9.77187 21.5266 10.0531 21.0047 10.5203 20.6969C11.7703 19.8531 12.5203 18.4469 12.5187 16.9391C12.5167 15.7374 12.0382 14.5856 11.1882 13.7362C10.3382 12.8867 9.18604 12.4091 7.98437 12.4078ZM30.5937 0.90625C31.3145 0.906451 32.0211 1.10604 32.6354 1.48294C33.2497 1.85984 33.7478 2.39935 34.0745 3.04177C34.4012 3.68419 34.5438 4.40447 34.4866 5.12292C34.4293 5.84136 34.1744 6.52995 33.75 7.1125L34.4625 8.77187L35.2937 8.25313C35.2347 7.52454 35.3812 6.79399 35.7167 6.14455C36.0522 5.49511 36.5632 4.95284 37.1916 4.5794C37.82 4.20596 38.5406 4.01633 39.2714 4.03208C40.0022 4.04782 40.7139 4.26831 41.3256 4.66848C41.9373 5.06864 42.4245 5.63242 42.7317 6.29571C43.0389 6.95899 43.1539 7.69518 43.0635 8.42055C42.9731 9.14591 42.6809 9.83136 42.2203 10.3989C41.7597 10.9665 41.149 11.3935 40.4578 11.6313L38.9516 17.6594C38.6982 18.6736 38.1131 19.5741 37.2893 20.2176C36.4654 20.8611 35.4501 21.2107 34.4047 21.2109H26.7844C25.739 21.2107 24.7236 20.8611 23.8998 20.2176C23.0759 19.5741 22.4908 18.6736 22.2375 17.6594L20.7297 11.6328C19.8565 11.3312 19.1183 10.7301 18.6462 9.93595C18.1741 9.14184 17.9987 8.20615 18.1509 7.29495C18.3032 6.38375 18.7734 5.55596 19.478 4.95849C20.1826 4.36101 21.0762 4.0325 22 4.03125C22.538 4.0312 23.0703 4.14229 23.5633 4.35757C24.0564 4.57284 24.4997 4.88765 24.8654 5.28227C25.2311 5.67688 25.5114 6.14279 25.6886 6.65078C25.8658 7.15878 25.9362 7.69791 25.8953 8.23438L26.7547 8.77187L27.4578 7.14062C27.0265 6.55949 26.7651 5.86995 26.7027 5.14892C26.6404 4.42789 26.7796 3.70372 27.1048 3.05718C27.43 2.41065 27.9285 1.86717 28.5445 1.48737C29.1606 1.10757 29.87 0.906383 30.5937 0.90625ZM31.0297 8.69531C30.7504 8.72632 30.4686 8.72737 30.1891 8.69844L29.2672 10.8422C29.1338 11.1524 28.9349 11.4302 28.6841 11.6564C28.4333 11.8827 28.1367 12.052 27.8144 12.1529C27.492 12.2538 27.1517 12.2839 26.8167 12.2411C26.4817 12.1982 26.16 12.0835 25.8734 11.9047L24.425 11C24.2546 11.1346 24.0732 11.2548 23.8828 11.3594L25.2672 16.9016C25.3515 17.2397 25.5465 17.54 25.8211 17.7546C26.0958 17.9692 26.4343 18.0858 26.7828 18.0859H34.4031C34.7517 18.0858 35.0902 17.9692 35.3648 17.7546C35.6394 17.54 35.8344 17.2397 35.9187 16.9016L37.3047 11.3609C37.1195 11.2587 36.9428 11.1417 36.7766 11.0109L35.3453 11.9047C35.0587 12.0837 34.7368 12.1987 34.4016 12.2417C34.0665 12.2847 33.726 12.2547 33.4035 12.1538C33.081 12.0529 32.7841 11.8834 32.5332 11.657C32.2823 11.4306 32.0834 11.1527 31.95 10.8422L31.0281 8.69531H31.0297ZM22 7.15625C21.7928 7.15625 21.5941 7.23856 21.4476 7.38507C21.3011 7.53159 21.2187 7.7303 21.2187 7.9375C21.2187 8.1447 21.3011 8.34341 21.4476 8.48993C21.5941 8.63644 21.7928 8.71875 22 8.71875C22.2072 8.71875 22.4059 8.63644 22.5524 8.48993C22.6989 8.34341 22.7812 8.1447 22.7812 7.9375C22.7812 7.7303 22.6989 7.53159 22.5524 7.38507C22.4059 7.23856 22.2072 7.15625 22 7.15625ZM39.1875 7.15625C38.9803 7.15625 38.7816 7.23856 38.6351 7.38507C38.4886 7.53159 38.4062 7.7303 38.4062 7.9375C38.4062 8.1447 38.4886 8.34341 38.6351 8.48993C38.7816 8.63644 38.9803 8.71875 39.1875 8.71875C39.3947 8.71875 39.5934 8.63644 39.7399 8.48993C39.8864 8.34341 39.9687 8.1447 39.9687 7.9375C39.9687 7.7303 39.8864 7.53159 39.7399 7.38507C39.5934 7.23856 39.3947 7.15625 39.1875 7.15625ZM30.5937 4.03125C30.3865 4.03125 30.1878 4.11356 30.0413 4.26007C29.8948 4.40659 29.8125 4.6053 29.8125 4.8125C29.8125 5.0197 29.8948 5.21841 30.0413 5.36493C30.1878 5.51144 30.3865 5.59375 30.5937 5.59375C30.8009 5.59375 30.9997 5.51144 31.1462 5.36493C31.2927 5.21841 31.375 5.0197 31.375 4.8125C31.375 4.6053 31.2927 4.40659 31.1462 4.26007C30.9997 4.11356 30.8009 4.03125 30.5937 4.03125Z" fill="#EBB817"/>
</svg>
