<svg width="38" height="42" viewBox="0 0 38 42" fill="none" xmlns="http://www.w3.org/2000/svg">
<path fill-rule="evenodd" clip-rule="evenodd" d="M13.6243 0.166656C15.1196 0.166656 16.5002 0.967844 17.2421 2.26607L19 5.34264L20.7581 2.26607C21.5 0.967844 22.8804 0.166656 24.3758 0.166656H33.8717C36.2713 0.166656 37.7754 2.75878 36.585 4.84209L29.54 17.171C32.0448 19.7898 33.5833 23.3402 33.5833 27.25C33.5833 35.3042 27.0542 41.8333 19 41.8333C10.9459 41.8333 4.41668 35.3042 4.41668 27.25C4.41668 23.3402 5.95533 19.7896 8.46016 17.171L1.41508 4.84209C0.224618 2.75878 1.72889 0.166656 4.12833 0.166656H13.6243ZM19 16.8333C13.2471 16.8333 8.58335 21.4971 8.58335 27.25C8.58335 33.0029 13.2471 37.6667 19 37.6667C24.7529 37.6667 29.4167 33.0029 29.4167 27.25C29.4167 21.4971 24.7529 16.8333 19 16.8333ZM19 23.0833C21.3013 23.0833 23.1667 24.9487 23.1667 27.25C23.1667 29.5512 21.3013 31.4167 19 31.4167C16.6988 31.4167 14.8333 29.5512 14.8333 27.25C14.8333 24.9487 16.6988 23.0833 19 23.0833ZM32.0769 4.33332H24.3758L21.3996 9.54172L23.6102 13.4104C24.5246 13.7148 25.3988 14.1074 26.2227 14.578L32.0769 4.33332ZM13.6243 4.33332H5.92331L11.7774 14.578C13.7421 13.4558 15.9929 12.7773 18.3933 12.6791L13.6243 4.33332Z" fill="#F4B723"/>
</svg>
