<svg width="34" height="30" viewBox="0 0 34 30" fill="none" xmlns="http://www.w3.org/2000/svg">
<path d="M28.0833 15.4459V18.1668C28.0833 24.288 23.121 29.2502 17 29.2502C10.8788 29.2502 5.91659 24.288 5.91659 18.1668V15.4459L15.9848 20.2068C16.6274 20.5106 17.3726 20.5106 18.0154 20.2068L28.0833 15.4459ZM18.0154 0.293748L32.3925 7.09227C33.5539 7.64144 33.7008 9.15427 32.8333 9.9472V16.5835C32.8333 17.458 32.1243 18.1668 31.25 18.1668C30.3755 18.1668 29.6667 17.458 29.6667 16.5835V11.5303L18.0154 17.0398C17.3726 17.3438 16.6274 17.3438 15.9848 17.0398L1.60755 10.2413C0.27801 9.6126 0.278057 7.72094 1.60755 7.09227L15.9848 0.293748C16.6274 -0.0101883 17.3726 -0.0101883 18.0154 0.293748Z" fill="white"/>
</svg>
