<svg width="30" height="32" viewBox="0 0 30 32" fill="none" xmlns="http://www.w3.org/2000/svg">
<path fill-rule="evenodd" clip-rule="evenodd" d="M3.91667 0.166687C2.16776 0.166687 0.75 1.58445 0.75 3.33335V30.0917C0.75 31.0536 1.52978 31.8334 2.49167 31.8334H27.5083C28.4702 31.8334 29.25 31.0536 29.25 30.0917V14.4167C29.25 12.6678 27.8323 11.25 26.0833 11.25H25.2917C24.8545 11.25 24.5 11.6045 24.5 12.0417V28.6667H22.9167V3.33335C22.9167 1.58445 21.499 0.166687 19.75 0.166687H3.91667ZM11.8333 4.91669C10.9589 4.91669 10.25 5.62558 10.25 6.50002V8.08335H8.66667C7.79222 8.08335 7.08333 8.79224 7.08333 9.66669C7.08333 10.5411 7.79222 11.25 8.66667 11.25H10.25V12.8334C10.25 13.7078 10.9589 14.4167 11.8333 14.4167C12.7078 14.4167 13.4167 13.7078 13.4167 12.8334V11.25H15C15.8745 11.25 16.5833 10.5411 16.5833 9.66669C16.5833 8.79224 15.8745 8.08335 15 8.08335H13.4167V6.50002C13.4167 5.62558 12.7078 4.91669 11.8333 4.91669ZM11.8333 19.1667C10.0844 19.1667 8.66667 20.5844 8.66667 22.3334V28.6667H15V22.3334C15 20.5844 13.5823 19.1667 11.8333 19.1667Z" fill="white"/>
</svg>
