<svg width="32" height="30" viewBox="0 0 32 30" fill="none" xmlns="http://www.w3.org/2000/svg">
<path fill-rule="evenodd" clip-rule="evenodd" d="M31.83 12.4558C31.9328 7.87644 29.5997 3.95177 26.2819 2.01868C23.1787 0.210623 19.2805 0.200933 16 2.86929C12.7196 0.200933 8.82136 0.210623 5.71807 2.01868C2.4002 3.95177 0.0672341 7.87644 0.169929 12.4558C0.170246 12.4697 0.170579 12.4836 0.170943 12.4976C0.319824 18.1947 4.76535 23.2232 12.3276 27.7155C12.8528 28.0285 13.3764 28.3458 13.9217 28.6229C14.5639 28.949 15.2674 29.25 16 29.25C16.7326 29.25 17.4361 28.949 18.0781 28.6229C18.6236 28.3458 19.1472 28.0285 19.6724 27.7155C27.2532 23.2123 31.7019 18.1702 31.83 12.4558ZM16 6.48556C16.484 6.48556 16.9681 6.30041 17.3343 5.9301C19.7229 3.51488 22.4811 3.46914 24.6878 4.75482C26.9747 6.08729 28.742 8.91603 28.6641 12.3848C28.575 16.362 25.4349 20.6091 18.0552 24.9929C17.4127 25.3756 16.7313 25.8804 16 26.0834V6.48556Z" fill="#004842"/>
</svg>
