<svg width="34" height="33" viewBox="0 0 34 33" fill="none" xmlns="http://www.w3.org/2000/svg">
<path d="M29.274 0.312012H28.424V4.02001C28.424 6.10801 26.826 7.83601 24.82 7.83601H22.474C20.502 7.83601 18.87 6.14401 18.87 4.02001V0.312012H15.13V4.02001C15.13 6.10801 13.532 7.83601 11.526 7.83601H9.18C7.208 7.83601 5.576 6.14401 5.576 4.02001V0.312012H4.726C2.618 0.312012 0.917999 2.11201 0.917999 4.34401V28.968C0.917999 31.2 2.618 33 4.726 33H29.24C31.348 33 33.048 31.2 33.048 28.968V4.34401C33.048 2.11201 31.348 0.312012 29.274 0.312012ZM25.976 23.208H20.774C20.06 23.208 19.448 22.74 19.244 22.02L19.21 21.912L18.666 19.608L16.014 28.032C15.776 28.752 15.164 29.22 14.45 29.22C13.906 29.22 13.396 28.932 13.09 28.464L13.022 28.356L10.336 23.208H8.16C7.31 23.208 6.222 22.488 6.154 21.624V21.516C6.154 20.616 7.174 19.86 8.024 19.788H11.288C11.832 19.788 12.342 20.076 12.648 20.544L12.716 20.652L14.076 23.244L17.34 12.912C17.578 12.192 18.156 11.724 18.87 11.724C19.584 11.724 20.196 12.192 20.4 12.912L20.434 13.02L22.032 19.752H25.84C26.69 19.752 27.404 20.436 27.472 21.336V21.444C27.472 22.38 26.826 23.136 25.976 23.208Z" fill="#004842"/>
</svg>
