<svg width="33" height="26" viewBox="0 0 33 26" fill="none" xmlns="http://www.w3.org/2000/svg">
<path d="M2.99018e-05 1.625C2.99018e-05 0.728 0.75078 0 1.63683 0H31.3632C32.2674 0 33 0.723125 33 1.625V24.375C33 25.272 32.2493 26 31.3632 26H1.63683C1.42089 25.9996 1.20716 25.9572 1.00791 25.8752C0.808658 25.7932 0.627804 25.6733 0.475726 25.5223C0.323648 25.3713 0.203341 25.1923 0.121709 24.9954C0.0400767 24.7985 -0.00127398 24.5877 2.99018e-05 24.375V1.625ZM2.99018e-05 4.875V6.5H33V4.875H2.99018e-05ZM7.33758 12.636C7.28956 12.5398 7.22267 12.4538 7.14076 12.3832C7.05886 12.3125 6.96357 12.2585 6.86038 12.2243C6.7572 12.1901 6.64815 12.1764 6.53954 12.1839C6.43093 12.1913 6.3249 12.2199 6.22756 12.268C6.13022 12.316 6.04349 12.3826 5.97239 12.4638C5.90129 12.545 5.84721 12.6392 5.81327 12.7411C5.77933 12.843 5.76621 12.9505 5.77465 13.0574C5.7831 13.1643 5.81295 13.2685 5.86248 13.364L9.16248 19.864C9.23107 19.9988 9.33638 20.1121 9.46664 20.1913C9.59689 20.2705 9.74695 20.3124 9.90003 20.3124C10.0531 20.3124 10.2032 20.2705 10.3334 20.1913C10.4637 20.1121 10.569 19.9988 10.6376 19.864L13.9376 13.364C13.9871 13.2685 14.017 13.1643 14.0254 13.0574C14.0339 12.9505 14.0207 12.843 13.9868 12.7411C13.9529 12.6392 13.8988 12.545 13.8277 12.4638C13.7566 12.3826 13.6698 12.316 13.5725 12.268C13.4752 12.2199 13.3691 12.1913 13.2605 12.1839C13.1519 12.1764 13.0429 12.1901 12.9397 12.2243C12.8365 12.2585 12.7412 12.3125 12.6593 12.3832C12.5774 12.4538 12.5105 12.5398 12.4625 12.636L9.90003 17.6833L7.33758 12.636ZM15.675 13V19.5C15.675 19.7155 15.7619 19.9222 15.9167 20.0745C16.0714 20.2269 16.2812 20.3125 16.5 20.3125C16.7188 20.3125 16.9287 20.2269 17.0834 20.0745C17.2381 19.9222 17.325 19.7155 17.325 19.5V13C17.325 12.7845 17.2381 12.5778 17.0834 12.4255C16.9287 12.2731 16.7188 12.1875 16.5 12.1875C16.2812 12.1875 16.0714 12.2731 15.9167 12.4255C15.7619 12.5778 15.675 12.7845 15.675 13ZM22.275 17.0625H24.75C25.0899 17.0544 25.5123 16.9764 25.9512 16.7537C26.7317 16.3605 27.225 15.6374 27.225 14.625C27.225 13.6126 26.73 12.8895 25.9512 12.4963C25.5861 12.3085 25.1831 12.203 24.7715 12.1875H21.45C21.2312 12.1875 21.0214 12.2731 20.8667 12.4255C20.7119 12.5778 20.625 12.7845 20.625 13V19.5C20.625 19.7155 20.7119 19.9222 20.8667 20.0745C21.0214 20.2269 21.2312 20.3125 21.45 20.3125C21.6688 20.3125 21.8787 20.2269 22.0334 20.0745C22.1881 19.9222 22.275 19.7155 22.275 19.5V17.0625ZM24.7286 15.4375H22.275V13.8125H24.75C24.9066 13.8276 25.0589 13.8717 25.1988 13.9425C25.4496 14.0693 25.575 14.2513 25.575 14.625C25.575 14.9987 25.4496 15.1807 25.1988 15.3075C25.0525 15.3813 24.8926 15.4255 24.7286 15.4375Z" fill="#004842"/>
</svg>
