<svg width="35" height="29" viewBox="0 0 35 29" fill="none" xmlns="http://www.w3.org/2000/svg">
<path d="M32.2501 25.6667C33.1246 25.6667 33.8335 26.3755 33.8335 27.25C33.8335 28.062 33.2223 28.7312 32.4348 28.8227L32.2501 28.8334H3.75012C2.87566 28.8334 2.16678 28.1245 2.16678 27.25C2.16678 26.438 2.77801 25.7688 3.56546 25.6773L3.75012 25.6667H32.2501ZM11.5565 0.613254L21.9472 9.10045L29.187 7.74687C30.9661 7.41389 32.7798 8.12085 33.864 9.56996L34.1192 9.91685C34.4041 10.3235 34.6196 10.747 34.5081 11.2919C34.1579 13.0032 32.871 14.3698 31.1838 14.8218L7.24512 21.236C6.28274 21.494 5.26169 21.1238 4.68824 20.309L0.472203 14.3188C0.155474 13.8686 0.383151 13.2408 0.914699 13.0983L3.48606 12.4094C4.25309 12.2039 5.07209 12.3953 5.66858 12.9194L6.85066 13.9583L6.86688 13.9611L13.5151 11.3638C13.5251 11.3598 13.5284 11.3473 13.5216 11.3389L6.04074 2.227C5.67561 1.78226 5.89189 1.1089 6.4477 0.959972L9.43914 0.15841C10.177 -0.0393012 10.9649 0.129958 11.5565 0.613254Z" fill="white"/>
</svg>
