<svg width="37" height="37" viewBox="0 0 37 37" fill="none" xmlns="http://www.w3.org/2000/svg">
<path d="M24.3192 13.9675L26.6821 9.1659C26.7913 8.93142 26.8487 8.67615 26.8503 8.41749V7.04681C26.8503 6.60076 26.6731 6.17299 26.3577 5.85758C26.0423 5.54218 25.6145 5.36499 25.1685 5.36499H11.7728C11.3268 5.36499 10.899 5.54218 10.5836 5.85758C10.2682 6.17299 10.091 6.60076 10.091 7.04681V8.45113C10.0926 8.7144 10.1559 8.97363 10.276 9.20794L12.6137 13.9675C10.879 15.2133 9.58433 16.9774 8.91599 19.0059C8.24765 21.0344 8.24014 23.2226 8.89454 25.2556C9.54893 27.2886 10.8315 29.0615 12.5576 30.3192C14.2837 31.5769 16.3644 32.2546 18.5001 32.2546C20.6358 32.2546 22.7165 31.5769 24.4426 30.3192C26.1687 29.0615 27.4512 27.2886 28.1056 25.2556C28.76 23.2226 28.7525 21.0344 28.0842 19.0059C27.4159 16.9774 26.1212 15.2133 24.3865 13.9675H24.3192ZM25.1601 7.04681V8.40908L22.8728 13.1014C22.5265 12.9306 22.1698 12.7818 21.8049 12.6557V7.0384L25.1601 7.04681ZM18.4328 12.0923C17.869 12.096 17.3064 12.1466 16.751 12.2436V7.02999H20.1146V12.21C19.5618 12.1155 19.0021 12.0677 18.4412 12.067L18.4328 12.0923ZM11.7055 8.47635V7.04681H15.0692V12.6809C14.7075 12.8085 14.3537 12.9573 14.0096 13.1266L11.7055 8.47635ZM18.4328 30.5923C16.7697 30.5923 15.1438 30.0991 13.761 29.1751C12.3781 28.2511 11.3003 26.9378 10.6638 25.4012C10.0274 23.8646 9.86084 22.1738 10.1853 20.5426C10.5098 18.9114 11.3107 17.4131 12.4867 16.237C13.6627 15.061 15.1611 14.2601 16.7923 13.9357C18.4235 13.6112 20.1143 13.7777 21.6508 14.4142C23.1874 15.0506 24.5007 16.1285 25.4247 17.5113C26.3487 18.8942 26.8419 20.52 26.8419 22.1832C26.8352 24.4076 25.9475 26.5387 24.373 28.11C22.7985 29.6813 20.6656 30.5648 18.4412 30.567L18.4328 30.5923Z" fill="white"/>
<path d="M22.7801 20.4761H19.8622C19.8039 20.4754 19.7474 20.4562 19.7006 20.4215C19.6538 20.3868 19.6191 20.3383 19.6015 20.2827L18.7017 17.5077C18.6844 17.4533 18.6502 17.4057 18.6041 17.372C18.558 17.3383 18.5024 17.3201 18.4452 17.3201C18.3881 17.3201 18.3324 17.3383 18.2863 17.372C18.2402 17.4057 18.206 17.4533 18.1888 17.5077L17.2806 20.2827C17.2657 20.3383 17.233 20.3874 17.1873 20.4223C17.1417 20.4573 17.0858 20.4762 17.0283 20.4761H14.1103C14.0524 20.4736 13.9952 20.4899 13.9473 20.5225C13.8993 20.5552 13.8632 20.6024 13.8443 20.6573C13.8254 20.7121 13.8247 20.7716 13.8423 20.8268C13.86 20.8821 13.895 20.9301 13.9422 20.9639L16.3051 22.6457C16.352 22.6788 16.3871 22.726 16.4053 22.7805C16.4234 22.835 16.4237 22.8938 16.406 22.9484L15.5063 25.7234C15.4895 25.7783 15.4902 25.8369 15.5082 25.8914C15.5261 25.9458 15.5605 25.9934 15.6066 26.0275C15.6527 26.0616 15.7082 26.0806 15.7655 26.0818C15.8229 26.0831 15.8792 26.0666 15.9267 26.0346L18.2813 24.3527C18.3263 24.3159 18.3828 24.2957 18.441 24.2957C18.4993 24.2957 18.5557 24.3159 18.6008 24.3527L20.9638 26.0346C21.0113 26.0666 21.0676 26.0831 21.1249 26.0818C21.1823 26.0806 21.2378 26.0616 21.2839 26.0275C21.3299 25.9934 21.3643 25.9458 21.3823 25.8914C21.4003 25.8369 21.4009 25.7783 21.3842 25.7234L20.4844 22.9484C20.4638 22.8941 20.4626 22.8342 20.4809 22.7791C20.4993 22.7239 20.5362 22.6768 20.5853 22.6457L22.9399 20.9639C22.9864 20.9305 23.021 20.8832 23.0388 20.8288C23.0566 20.7745 23.0566 20.7158 23.0388 20.6615C23.021 20.6071 22.9863 20.5598 22.9398 20.5265C22.8933 20.4932 22.8373 20.4755 22.7801 20.4761Z" fill="white"/>
</svg>
