<svg width="35" height="35" viewBox="0 0 35 35" fill="none" xmlns="http://www.w3.org/2000/svg">
<path d="M24.9404 4.69629H22.4282V6.74707H24.9404C26.2598 6.74707 27.333 7.82031 27.333 9.13965V24.2402C27.333 25.5596 26.2598 26.6328 24.9404 26.6328H9.83984C8.52051 26.6328 7.44727 25.5596 7.44727 24.2402V9.13965C7.44727 7.82031 8.52051 6.74707 9.83984 6.74707H12.0376V4.69629H9.83984C7.38916 4.69629 5.39648 6.68896 5.39648 9.13965V24.2402C5.39648 26.6909 7.38916 28.6836 9.83984 28.6836H24.9404C27.3911 28.6836 29.3838 26.6909 29.3838 24.2402V9.13965C29.3838 6.68896 27.3911 4.69629 24.9404 4.69629Z" fill="#004A42"/>
<path d="M18.334 8.79443H16.1362C14.4443 8.79443 13.0635 7.41699 13.0635 5.72168C13.0635 4.02637 14.4409 2.64893 16.1362 2.64893H18.334C20.0259 2.64893 21.4067 4.02637 21.4067 5.72168C21.4067 7.41699 20.0259 8.79443 18.334 8.79443ZM16.1362 4.70313C15.5723 4.70313 15.1143 5.16113 15.1143 5.7251C15.1143 6.28906 15.5723 6.74707 16.1362 6.74707H18.334C18.898 6.74707 19.356 6.28906 19.356 5.7251C19.356 5.16113 18.898 4.70313 18.334 4.70313H16.1362ZM17.3906 25.0845C15.3706 25.0845 13.4736 24.2983 12.0449 22.8696C10.6162 21.4409 9.83008 19.5439 9.83008 17.5239C9.83008 15.5039 10.6162 13.6069 12.0449 12.1782C13.4736 10.7495 15.3706 9.96338 17.3906 9.96338C19.4106 9.96338 21.3076 10.7495 22.7363 12.1782C24.165 13.6069 24.9512 15.5039 24.9512 17.5239C24.9512 19.5439 24.165 21.4409 22.7363 22.8696C21.3076 24.2983 19.4106 25.0845 17.3906 25.0845ZM17.3906 12.0176C14.3521 12.0176 11.8843 14.4888 11.8843 17.5239C11.8843 20.5591 14.3555 23.0337 17.3906 23.0337C20.4292 23.0337 22.897 20.5625 22.897 17.5273C22.897 14.4922 20.4292 12.0176 17.3906 12.0176Z" fill="#004A42"/>
<path d="M16.1052 20.8736C15.8522 20.8736 15.5993 20.7813 15.4045 20.5967L13.1179 18.4502C12.7043 18.064 12.6838 17.4146 13.0734 17.001C13.4597 16.5874 14.1091 16.5669 14.5226 16.9566L16.0983 18.4331L19.9094 14.7451C20.3161 14.3521 20.9655 14.3623 21.3586 14.7691C21.7517 15.1758 21.7414 15.8252 21.3347 16.2183L16.8195 20.5864C16.6213 20.7778 16.3615 20.8736 16.1052 20.8736Z" fill="#004A42"/>
</svg>
