<svg width="24" height="24" viewBox="0 0 24 24" fill="none" xmlns="http://www.w3.org/2000/svg">
<path d="M19.4001 12L23.1001 8.30001C24.1001 7.30001 24.1001 5.70001 23.1001 4.80001L19.2001 0.900006C18.3001 6.09457e-06 16.6001 6.09457e-06 15.7001 0.900006L12.0001 4.60001L8.30011 0.900006C7.40011 6.09457e-06 5.70011 6.09457e-06 4.80011 0.900006L0.900109 4.80001C-0.0998914 5.80001 -0.0998914 7.40001 0.900109 8.30001L4.60011 12L3.00011 13.5C2.70011 13.8 2.50011 14.1 2.40011 14.5L0.200108 20.6C-0.0998915 21.4 0.100108 22.2 0.500108 22.8C1.00011 23.4 1.70011 23.8 2.50011 23.8C2.80011 23.8 3.00011 23.8 3.30011 23.7L9.40011 21.5C9.80011 21.4 10.1001 21.2 10.4001 20.9L11.9001 19.4L15.6001 23.1C16.1001 23.6 16.7001 23.8 17.4001 23.8C18.1001 23.8 18.7001 23.5 19.2001 23.1L23.1001 19.2C24.1001 18.2 24.1001 16.6 23.1001 15.7L19.4001 12ZM17.5001 2.10001C17.6001 2.10001 17.8001 2.20001 17.9001 2.20001L21.8001 6.10001C22.0001 6.30001 22.0001 6.60001 21.8001 6.80001L20.4001 8.20001L15.8001 3.60001L17.2001 2.20001C17.2001 2.20001 17.3001 2.10001 17.5001 2.10001ZM4.70011 9.30001L6.50011 7.50001C6.80011 7.20001 6.80011 6.70001 6.50011 6.40001C6.20011 6.10001 5.70011 6.10001 5.40011 6.40001L3.60011 8.20001L2.30011 6.90001C2.10011 6.70001 2.10011 6.40001 2.30011 6.20001L6.20011 2.30001C6.30011 2.20001 6.40011 2.20001 6.60011 2.20001C6.80011 2.20001 6.90011 2.30001 7.00011 2.30001L10.6001 6.00001L6.00011 10.6L4.70011 9.30001ZM9.10011 19.6C9.10011 19.6 9.00011 19.7 8.90011 19.7L2.80011 21.9C2.60011 22 2.40011 21.9 2.30011 21.7C2.20011 21.6 2.20011 21.5 2.20011 21.3L4.40011 15.2C4.40011 15.1 4.50011 15.1 4.50011 15L6.70011 12.8L12.7001 6.80001L14.7001 4.80001L19.3001 9.40001L17.3001 11.4L11.3001 17.4L9.10011 19.6ZM21.7001 17.8L17.8001 21.7C17.6001 21.9 17.3001 21.9 17.1001 21.7L15.8001 20.4L17.6001 18.6C17.9001 18.3 17.9001 17.8 17.6001 17.5C17.3001 17.2 16.8001 17.2 16.5001 17.5L14.7001 19.3L13.4001 18L18.0001 13.4L21.7001 17.1C21.9001 17.3 21.9001 17.6 21.7001 17.8Z" fill="white"/>
</svg>
