<svg width="31" height="31" viewBox="0 0 31 31" fill="none" xmlns="http://www.w3.org/2000/svg">
<path d="M22.4329 11.1406C22.4329 11.4012 22.4241 11.6579 22.4159 11.9142C22.4237 12.0396 22.4329 12.1641 22.4329 12.2915C22.4329 16.2038 19.329 19.375 15.5 19.375C11.671 19.375 8.56714 16.2038 8.56714 12.2915C8.56714 12.0648 8.58361 11.843 8.60637 11.6231C8.60298 11.4623 8.5962 11.3034 8.5962 11.1406C8.5962 8.46688 8.99242 5.97573 9.67394 3.875H21.3556C22.0366 5.97573 22.4329 8.46688 22.4329 11.1406ZM11.1823 5.8125C10.9047 6.98243 10.7234 8.17313 10.6403 9.37266C12.2231 8.93587 13.858 8.7159 15.5 8.71875C17.1759 8.71875 18.8117 8.94108 20.3898 9.38138C20.3066 8.17891 20.125 6.98529 19.8468 5.8125H11.1823ZM15.5 17.6041C18.2304 17.6041 20.4522 15.221 20.4522 12.2915C20.4522 11.9912 20.4232 11.6986 20.3786 11.4119C17.2044 10.4048 13.7963 10.4044 10.6219 11.4109C10.5743 11.7021 10.5495 11.9965 10.5477 12.2915C10.5477 15.221 12.7696 17.6041 15.5 17.6041ZM21.2447 19.3745C24.2095 20.9807 26.4013 23.7857 27.125 27.125H25.3706C24.6208 24.2057 22.5535 21.7964 19.8264 20.5351C20.3426 20.2046 20.8186 19.8151 21.2447 19.3745ZM9.75531 19.3745C10.1814 19.8151 10.6574 20.2046 11.1736 20.5351C8.44653 21.7964 6.37922 24.2057 5.62941 27.125H3.875C4.59866 23.7857 6.79045 20.9807 9.75531 19.3745ZM19.4617 23.25C19.4617 24.0119 19.0083 24.6644 18.3544 24.9807C18.0517 26.01 17.1779 27.1148 15.4792 27.1148C13.3542 27.1148 12.5453 25.3963 12.5206 24.241V21.3023C12.5206 20.7676 12.9638 20.3336 13.5112 20.3336C14.058 20.3336 14.5012 20.7676 14.5012 21.3023V24.2207C14.5177 24.5583 14.6678 25.1773 15.4792 25.1773C15.9045 25.1773 16.1534 25.0107 16.3007 24.7981C15.8173 24.4445 15.5 23.8855 15.5 23.25C15.5 22.18 16.3869 21.3125 17.4806 21.3125C18.5748 21.3125 19.4617 22.18 19.4617 23.25Z" fill="#004A42"/>
</svg>
