<svg width="33" height="33" viewBox="0 0 33 33" fill="none" xmlns="http://www.w3.org/2000/svg">
<path opacity="0.5" d="M27.283 18.2918L24.6727 9.22001C24.6727 9.22001 24.6404 9.14267 24.5889 9.02021C24.634 9.14912 24.6791 9.2748 24.721 9.41015C24.721 9.41015 25.0014 10.5413 25.3913 11.9722C23.7639 12.201 22.3524 11.6692 22.1687 10.7347C22.0043 9.86777 22.9421 8.9332 24.344 8.48525C23.8573 7.47333 22.8809 5.75244 21.7562 5.46884C21.7562 5.46884 16.1262 5.06601 14.9209 7.88261C14.9209 7.88261 14.3859 8.95576 14.6276 10.6605C15.1304 10.1449 15.9586 9.71953 16.9447 9.52939C18.6882 9.19423 20.2608 9.72597 20.451 10.7218C20.6411 11.7176 19.3843 12.7939 17.6376 13.1323C16.7739 13.2999 15.9522 13.2516 15.3205 13.0421C15.8716 14.5406 16.2003 15.2303 16.529 17.5345C16.8803 19.9869 19.3682 19.3875 20.799 20.2576C20.8087 20.1803 20.8506 20.0965 20.9441 20.003C20.9441 20.003 23.2096 17.7375 24.721 17.7375C26.2324 17.7375 26.9865 18.8719 26.2324 20.003C25.6814 20.828 22.5232 21.0536 21.2889 20.6733C21.3114 20.6991 21.334 20.7249 21.3533 20.7507C22.5586 22.3588 22.1525 26.7964 22.1525 26.7964C22.1525 26.7964 27.5795 26.6933 27.283 18.2918Z" fill="#004A42"/>
<path d="M22.9615 16.1423C22.9035 16.1423 22.8487 16.1197 22.8036 16.0778C22.7166 15.9908 22.7166 15.849 22.8036 15.762C23.6801 14.8855 22.2138 12.4814 21.5757 11.6273C21.5016 11.5307 21.521 11.3889 21.6209 11.3148C21.7175 11.2406 21.8593 11.26 21.9335 11.3599C21.9592 11.3921 22.5554 12.1945 23.013 13.1581C23.6576 14.5181 23.693 15.501 23.1194 16.0746C23.0743 16.1197 23.0195 16.1423 22.9615 16.1423ZM16.6032 13.4514C16.1069 13.4514 15.6364 13.3805 15.2271 13.2419C14.4859 12.9905 14.0186 12.5394 13.909 11.9786C13.7995 11.4147 14.067 10.8249 14.6631 10.3157C15.2239 9.83555 16.0167 9.47784 16.8964 9.30704C17.7762 9.13624 18.6463 9.17491 19.3457 9.41339C20.0869 9.66475 20.5542 10.1159 20.6637 10.6767C20.7733 11.2406 20.5058 11.8304 19.9096 12.3396C19.3489 12.8197 18.5561 13.1774 17.6763 13.3482C17.3122 13.4159 16.9512 13.4514 16.6032 13.4514ZM17.9599 9.64864C17.6473 9.64864 17.3186 9.67764 16.9835 9.7421C15.3882 10.0482 14.183 11.0344 14.3473 11.8916C14.5117 12.7488 16.0005 13.2161 17.5925 12.9067C18.3982 12.7521 19.1201 12.4298 19.6228 11.998C20.0901 11.5983 20.306 11.1568 20.2287 10.7572C20.0965 10.0805 19.1394 9.64864 17.9599 9.64864ZM24.6405 12.2429C23.2257 12.2429 22.1236 11.6692 21.9496 10.7701C21.8561 10.2771 22.0591 9.74854 22.52 9.28126C22.9486 8.8462 23.5835 8.48204 24.3118 8.25645L24.5051 8.19522L24.5825 8.37891C24.7049 8.66573 24.8177 8.97833 24.9305 9.33604L24.9337 9.34893C24.937 9.3586 25.2206 10.493 25.6041 11.9045L25.6717 12.1494L25.4204 12.1849C25.1529 12.2268 24.8919 12.2429 24.6405 12.2429ZM24.2505 8.74629C23.0485 9.17491 22.2557 9.99024 22.3878 10.6896C22.4587 11.0634 22.7907 11.3792 23.316 11.579C23.8155 11.7691 24.4471 11.84 25.1078 11.7788C24.7726 10.5349 24.5277 9.5584 24.5051 9.46817C24.4213 9.20391 24.3376 8.96544 24.2505 8.74629ZM22.8745 21.0697C22.5039 21.0697 22.1494 21.0504 21.84 21.0085C21.102 20.9118 20.696 20.7185 20.5928 20.4188C20.5477 20.2866 20.5445 20.0772 20.783 19.8387C20.8796 19.742 23.1323 17.5055 24.7178 17.5055C25.5718 17.5055 26.2679 17.8535 26.5805 18.4336C26.8512 18.9396 26.79 19.5551 26.4129 20.119C26.0907 20.6024 25.1626 20.8377 24.4439 20.9505C23.9444 21.0278 23.3965 21.0697 22.8745 21.0697ZM24.7178 17.9534C23.316 17.9534 21.1181 20.1319 21.0988 20.1545C21.0182 20.2351 21.015 20.277 21.015 20.277C21.0247 20.3092 21.1697 20.4478 21.7304 20.5412C23.1677 20.7829 25.6427 20.4768 26.0488 19.8741C26.3356 19.4423 26.3872 19.0072 26.1938 18.6463C25.9586 18.2112 25.4075 17.9534 24.7178 17.9534Z" fill="#004A42"/>
<path d="M20.4994 27.6504C18.1695 27.6504 15.7976 26.6481 13.7383 24.779C13.5127 24.5728 13.4934 24.2215 13.6996 23.9927C13.9059 23.7671 14.2572 23.7478 14.486 23.954C16.5323 25.8135 18.901 26.7223 21.1536 26.5064C22.8133 26.3484 24.2699 25.5847 25.1497 24.4084C26.7288 22.2976 27.2541 19.207 26.3937 17.0575C26.007 16.0939 25.5042 14.4762 24.8532 12.1107C24.4923 10.783 24.2184 9.70342 24.1829 9.55196C24.0798 9.22647 23.9735 8.93965 23.8639 8.68184C22.8939 6.40342 21.1536 4.96289 18.6915 4.40537C16.8611 3.99287 15.282 4.2378 15.1788 4.25391C12.7812 4.73409 11.0313 5.82012 9.97747 7.47334C8.12122 10.3898 9.01067 14.141 9.02034 14.1797C9.09446 14.4762 8.91077 14.7791 8.61428 14.8532C8.31457 14.9273 8.01487 14.7437 7.94075 14.4472C7.93108 14.4053 7.67971 13.3676 7.68616 11.9271C7.69582 10.0031 8.16311 8.25967 9.03645 6.88037C10.2578 4.95645 12.2527 3.70606 14.9661 3.16465L14.979 3.16143C15.0531 3.14854 16.8031 2.84883 18.8946 3.31289C21.7047 3.93809 23.7737 5.6461 24.8855 8.25323C25.0112 8.54971 25.1304 8.87198 25.2464 9.23936L25.2561 9.27159C25.2593 9.28125 25.5397 10.4124 25.9232 11.8207C26.5516 14.1088 27.0575 15.733 27.4217 16.645C27.8954 17.8277 28.0276 19.3037 27.7988 20.8087C27.5571 22.3846 26.948 23.8605 26.036 25.0755C24.9693 26.4999 23.229 27.4248 21.2568 27.6117C21.0086 27.6375 20.754 27.6504 20.4994 27.6504Z" fill="#004A42"/>
<path d="M12.3878 23.3482C12.2943 23.3482 12.1977 23.3256 12.1106 23.274L10.3704 22.2686C10.1062 22.1139 10.0127 21.7755 10.1674 21.508C10.3221 21.2438 10.6604 21.1503 10.9279 21.305L12.6682 22.3105C12.9324 22.4651 13.0259 22.8035 12.8712 23.071C12.7648 23.2482 12.5779 23.3482 12.3878 23.3482ZM11.1793 25.4364C11.0858 25.4364 10.9892 25.4139 10.9021 25.3623L9.16191 24.3568C8.89766 24.2022 8.8042 23.8638 8.95889 23.5963C9.11357 23.332 9.45195 23.2386 9.71943 23.3933L11.4597 24.3987C11.7239 24.5534 11.8174 24.8918 11.6627 25.1593C11.5596 25.3365 11.3727 25.4364 11.1793 25.4364Z" fill="#004A42"/>
<path d="M10.0096 28.5753L4.88232 25.6169L10.248 16.326L15.3753 19.2844L10.0096 28.5753ZM6.4002 25.2109L9.60352 27.0607L13.8574 19.6904L10.6541 17.8406L6.4002 25.2109Z" fill="#004A42"/>
<path d="M16.0553 20.8764C15.9619 20.8764 15.8652 20.8538 15.7782 20.8023L8.73345 16.732C8.46919 16.5774 8.37573 16.239 8.53042 15.9715C8.68511 15.7072 9.02348 15.6138 9.29097 15.7685L16.3389 19.8387C16.6032 19.9934 16.6966 20.3318 16.5419 20.5992C16.4356 20.7765 16.2487 20.8764 16.0553 20.8764ZM15.5655 18.0308C15.472 18.0308 15.3753 18.0082 15.2883 17.9567L11.4437 15.7362C11.1794 15.5816 11.086 15.2432 11.2407 14.9757C11.3954 14.7114 11.7337 14.618 12.0012 14.7727L15.8458 16.9931C16.1101 17.1478 16.2036 17.4861 16.0489 17.7536C15.9425 17.9309 15.7556 18.0308 15.5655 18.0308Z" fill="#004A42"/>
<path d="M13.6995 19.6002L10.8152 17.9341L12.4813 15.0498L15.3656 16.7159L13.6995 19.6002ZM12.3331 17.528L13.2934 18.0823L13.8477 17.122L12.8874 16.5677L12.3331 17.528Z" fill="#004A42"/>
<path d="M6.12314 29.9449C6.02969 29.9449 5.93301 29.9224 5.846 29.8708C5.58174 29.7161 5.48828 29.3777 5.64297 29.1103L7.15439 26.4935C7.30908 26.2292 7.64746 26.1357 7.91494 26.2904C8.1792 26.4451 8.27266 26.7835 8.11797 27.051L6.60654 29.6678C6.50019 29.8482 6.31328 29.9449 6.12314 29.9449Z" fill="#004A42"/>
</svg>
