<svg width="58" height="58" viewBox="0 0 58 58" fill="none" xmlns="http://www.w3.org/2000/svg">
<path d="M34.4899 38.0464C32.5511 38.0464 31.0409 37.9003 30.6122 37.8516C29.6185 37.7347 28.8975 36.848 29.0144 35.8543C29.1216 34.8605 30.0082 34.1492 31.0117 34.2564C35.5227 34.7533 42.4402 34.3246 43.6484 31.8109C44.077 30.9146 45.1585 30.5248 46.0646 30.9633C46.9707 31.392 47.3507 32.4832 46.9123 33.3795C44.9929 37.3449 38.7087 38.0464 34.4899 38.0464Z" fill="#3A7065"/>
<path d="M50.7515 36.2439C49.7479 36.2439 48.9393 35.4352 48.9393 34.4317V28.1865L46.5133 27.3193C45.7923 27.066 45.3051 26.3743 45.3051 25.6143C45.3051 16.6215 37.9881 9.30454 28.9954 9.30454C20.0026 9.30454 12.6856 16.6215 12.6856 25.6143C12.6856 26.1989 12.4031 26.7445 11.9257 27.0855L10.8734 27.8357V34.422C10.8734 35.4255 10.0647 36.2342 9.06122 36.2342C8.05769 36.2342 7.24902 35.4255 7.24902 34.422V26.9004C7.24902 26.3158 7.53157 25.7702 8.00898 25.4292L9.08071 24.6595C9.5776 14.1078 18.3171 5.67041 28.9954 5.67041C39.5568 5.68015 48.228 13.9325 48.9003 24.3282L51.3653 25.2051C52.0862 25.4584 52.5734 26.1502 52.5734 26.9101V34.4317C52.5637 35.4352 51.755 36.2439 50.7515 36.2439Z" fill="#3A7065"/>
<path d="M36.2437 44.3891V43.8435C37.8318 42.6061 39.0984 41.4077 39.8486 39.7222C38.202 39.9853 36.3606 39.8878 34.8797 39.8878C33.0675 39.8878 31.5184 39.9365 30.5733 39.8294C28.5857 39.6053 27.1535 37.6372 27.3678 35.6496C27.5919 33.6621 29.3944 32.2104 31.3722 32.4442C35.4058 32.8729 39.8583 32.4052 41.6413 31.655C41.7193 29.9987 41.6998 28.2547 41.6998 26.9296C41.6998 19.1742 36.9842 14.5755 29.4236 14.4099C29.3846 14.4099 28.3616 14.4099 28.3226 14.4099C20.7621 14.5658 16.2316 19.2229 16.2316 26.9881C16.2316 31.7817 16.3095 39.6053 21.7461 43.8532V44.3988C14.4974 45.529 8.94385 48.5104 8.94385 52.4465C8.94385 53.4501 9.78174 54.3854 10.7853 54.3854H46.3569C47.3604 54.3854 48.6173 53.4501 48.6173 52.4465C48.627 48.5006 43.5022 45.529 36.2437 44.3891Z" fill="#3A7065"/>
</svg>
