<svg width="23" height="20" viewBox="0 0 23 20" fill="none" xmlns="http://www.w3.org/2000/svg">
<path fill-rule="evenodd" clip-rule="evenodd" d="M17.1874 19.7003C15.6207 19.7003 14.3338 19.206 13.3267 18.2175C12.3196 17.2291 11.816 15.9329 11.816 14.3289C11.816 13.5829 11.9092 12.8369 12.0958 12.0909C12.2823 11.3448 12.6926 10.2258 13.3267 8.73377L16.516 0.676758H22.0552L19.5933 9.57304C20.5259 9.94605 21.2626 10.5522 21.8034 11.3915C22.3443 12.2307 22.6147 13.2099 22.6147 14.3289C22.6147 15.9329 22.1018 17.2291 21.076 18.2175C20.0503 19.206 18.754 19.7003 17.1874 19.7003ZM5.42608 19.7003C3.85942 19.7003 2.57253 19.206 1.56539 18.2175C0.558258 17.2291 0.0546892 15.9329 0.0546875 14.3289C0.0546892 13.5829 0.147945 12.8369 0.334451 12.0909C0.520957 11.3448 0.931271 10.2258 1.56539 8.73377L4.75466 0.676758H10.2939L7.83202 9.57304C8.76455 9.94605 9.50125 10.5522 10.0421 11.3915C10.583 12.2307 10.8534 13.2099 10.8534 14.3289C10.8534 15.9329 10.3405 17.2291 9.31474 18.2175C8.28896 19.206 6.99274 19.7003 5.42608 19.7003Z" fill="#D2C5A0"/>
</svg>
