<svg width="24" height="20" viewBox="0 0 24 20" fill="none" xmlns="http://www.w3.org/2000/svg">
<path fill-rule="evenodd" clip-rule="evenodd" d="M17.7268 19.7003C16.1602 19.7003 14.8733 19.206 13.8661 18.2175C12.859 17.2291 12.3554 15.9329 12.3554 14.3289C12.3554 13.5829 12.4487 12.8369 12.6352 12.0909C12.8217 11.3448 13.232 10.2258 13.8661 8.73377L17.0554 0.676758H22.5946L20.1328 9.57304C21.0653 9.94605 21.802 10.5522 22.3429 11.3915C22.8837 12.2307 23.1542 13.2099 23.1542 14.3289C23.1542 15.9329 22.6413 17.2291 21.6155 18.2175C20.5897 19.206 19.2935 19.7003 17.7268 19.7003ZM5.96551 19.7003C4.39885 19.7003 3.11196 19.206 2.10482 18.2175C1.09769 17.2291 0.594118 15.9329 0.594116 14.3289C0.594118 13.5829 0.687374 12.8369 0.87388 12.0909C1.06039 11.3448 1.4707 10.2258 2.10482 8.73377L5.29409 0.676758H10.8333L8.37144 9.57304C9.30398 9.94605 10.0407 10.5522 10.5816 11.3915C11.1224 12.2307 11.3929 13.2099 11.3929 14.3289C11.3929 15.9329 10.88 17.2291 9.85417 18.2175C8.82839 19.206 7.53217 19.7003 5.96551 19.7003Z" fill="#EBB817"/>
</svg>
