<svg width="18" height="16" viewBox="0 0 18 16" fill="none" xmlns="http://www.w3.org/2000/svg">
<path d="M15.3672 0.539062C15.7839 0.460938 16.1615 0.552083 16.5 0.8125C16.8385 1.07292 17.0469 1.42448 17.125 1.86719C17.2031 2.28385 17.112 2.67448 16.8516 3.03906L8.76562 14.8359C8.50521 15.1745 8.16667 15.3828 7.75 15.4609C7.35938 15.5391 6.99479 15.4479 6.65625 15.1875C6.44792 15.0312 5.90104 14.4844 5.01562 13.5469C4.13021 12.5833 3.29688 11.6589 2.51562 10.7734L1.30469 9.44531C1.01823 9.13281 0.875 8.75521 0.875 8.3125C0.875 7.86979 1.03125 7.49219 1.34375 7.17969C1.65625 6.86719 2.02083 6.72396 2.4375 6.75C2.85417 6.75 3.20573 6.91927 3.49219 7.25781L7.35938 11.4375L14.3906 1.16406C14.651 0.825521 14.9766 0.617188 15.3672 0.539062Z" fill="#EBB817"/>
</svg>
