<svg width="40" height="40" viewBox="0 0 40 40" fill="none" xmlns="http://www.w3.org/2000/svg">
<path d="M20 39.25C9.3685 39.25 0.75 30.6315 0.75 20C0.75 9.3685 9.3685 0.75 20 0.75C30.6315 0.75 39.25 9.3685 39.25 20C39.25 30.6315 30.6315 39.25 20 39.25ZM20 36.5C29.1121 36.5 36.5 29.1121 36.5 20C36.5 10.8879 29.1121 3.5 20 3.5C10.8879 3.5 3.5 10.8879 3.5 20C3.5 29.1121 10.8879 36.5 20 36.5ZM18.5837 12.1597C18.5837 11.7363 18.6731 11.4475 18.8533 11.2935C19.032 11.1395 19.3345 11.0625 19.758 11.0625C20.1567 11.0625 20.451 11.1395 20.6435 11.2935C20.836 11.4475 20.9322 11.7363 20.9322 12.1597V14.5853H25.6677C26.1421 14.5853 26.5244 14.6073 26.8131 14.6526C27.1019 14.698 27.326 14.797 27.4869 14.951C27.6477 15.105 27.7564 15.3222 27.8141 15.6055C27.8719 15.8874 27.9008 16.26 27.9008 16.722V22.5548C27.9008 22.9783 27.8746 23.3275 27.8238 23.6039C27.7889 23.8471 27.6777 24.0729 27.5061 24.2488C27.3452 24.4028 27.1211 24.5114 26.8324 24.576C26.5436 24.6406 26.1614 24.6723 25.687 24.6723H20.9322V28.6377C20.9322 28.9719 20.8498 29.2373 20.682 29.4366C20.5156 29.636 20.2076 29.735 19.758 29.735C19.2575 29.735 18.9371 29.6525 18.7955 29.4848C18.6539 29.3184 18.5837 29.0296 18.5837 28.6185V24.6723H13.9445C13.4825 24.6723 13.1071 24.6406 12.8184 24.576C12.5662 24.5305 12.3324 24.4136 12.1446 24.2391C11.9742 24.0587 11.8633 23.8302 11.827 23.5846C11.7761 23.3096 11.75 22.9659 11.75 22.5548V16.7028C11.75 16.2669 11.7761 15.9107 11.827 15.6344C11.8619 15.3912 11.9731 15.1654 12.1446 14.9895C12.3342 14.8213 12.568 14.7111 12.8184 14.6719C13.1901 14.6073 13.5672 14.5783 13.9445 14.5853H18.5837V12.1597ZM14.522 16.876C14.3295 16.876 14.2071 16.9076 14.1562 16.9722C14.1054 17.0369 14.0793 17.1964 14.0793 17.4535V21.7078C14.0793 22.0158 14.1081 22.2055 14.1659 22.2756C14.2236 22.3458 14.3611 22.3815 14.5797 22.3815H18.5837V16.876H14.522ZM20.9322 16.876V22.3815H25.0325C25.2896 22.3815 25.4436 22.343 25.4945 22.266C25.5454 22.189 25.5715 22.0034 25.5715 21.7078V17.4535C25.5715 17.2101 25.5303 17.052 25.4464 16.9819C25.3639 16.9118 25.1741 16.876 24.8785 16.876H20.9322Z" fill="#3A7065"/>
</svg>
