<svg width="22" height="22" viewBox="0 0 22 22" fill="none" xmlns="http://www.w3.org/2000/svg">
<path d="M10.9766 11.6328C7.9297 11.6328 5.45236 9.15312 5.45236 6.10859C5.45236 3.06406 7.9297 0.582031 10.9766 0.582031C14.0234 0.582031 16.5008 3.06172 16.5008 6.10625C16.5008 9.15078 14.0234 11.6328 10.9766 11.6328ZM10.9766 2.44063C8.95392 2.44063 7.30861 4.08594 7.30861 6.10859C7.30861 8.13125 8.95392 9.77656 10.9766 9.77656C12.9992 9.77656 14.6445 8.13125 14.6445 6.10859C14.6445 4.08594 12.9992 2.44063 10.9766 2.44063ZM20.5555 21.5633H1.39767C0.884387 21.5633 0.469543 21.1484 0.469543 20.6352V17.7922C0.469543 14.5602 2.99142 11.9305 6.08986 11.9305H15.8656C18.9641 11.9305 21.4859 14.5602 21.4859 17.7922V20.6328C21.4836 21.1461 21.0688 21.5633 20.5555 21.5633ZM2.32579 19.7047H19.6274V17.7922C19.6274 15.5844 17.9399 13.7891 15.8633 13.7891H6.08986C4.01564 13.7891 2.32579 15.5844 2.32579 17.7922V19.7047Z" fill="white"/>
</svg>
