<svg width="52" height="52" viewBox="0 0 52 52" fill="none" xmlns="http://www.w3.org/2000/svg">
<path d="M48.75 6.5H42.3008C42.3008 3.80859 40.1172 1.625 37.4258 1.625H36.6133C33.9219 1.625 31.7383 3.80859 31.7383 6.5H20.3125C20.3125 5.1543 19.7691 3.93555 18.8855 3.05195C18.002 2.16836 16.7832 1.625 15.4375 1.625H14.625C11.9336 1.625 9.75 3.80859 9.75 6.5H3.25C1.45742 6.5 0 7.95234 0 9.75V47.125C0 48.9176 1.45742 50.375 3.25 50.375H48.75C50.5426 50.375 52 48.9176 52 47.125V9.75C52 7.95234 50.5426 6.5 48.75 6.5ZM34.9883 6.90625C34.9883 5.78398 35.8973 4.875 37.0195 4.875C38.1418 4.875 39.0508 5.78398 39.0508 6.90625V10.9688C39.0508 12.091 38.1418 13 37.0195 13C36.4609 13 35.9531 12.7715 35.5824 12.4059C35.2168 12.0352 34.9883 11.5273 34.9883 10.9688V6.90625ZM13 6.90625C13 5.78398 13.909 4.875 15.0312 4.875C16.1535 4.875 17.0625 5.78398 17.0625 6.90625V10.9688C17.0625 12.091 16.1535 13 15.0312 13C14.4727 13 13.9648 12.7715 13.5941 12.4059C13.2285 12.0352 13 11.5273 13 10.9688V6.90625ZM48.75 45.5C48.75 46.3988 48.0238 47.125 47.125 47.125H4.875C3.97617 47.125 3.25 46.3988 3.25 45.5V22.75H48.75V45.5Z" fill="#3A7065"/>
<path d="M4.875 26H17.875V34.125H4.875V26ZM4.875 35.75H17.875V43.875H4.875V35.75ZM19.5 26H32.5V34.125H19.5V26ZM19.5 35.75H32.5V43.875H19.5V35.75ZM34.125 26H47.125V34.125H34.125V26ZM34.125 35.75H47.125V43.875H34.125V35.75Z" fill="#3A7065"/>
</svg>
