<svg width="40" height="40" viewBox="0 0 40 40" fill="none" xmlns="http://www.w3.org/2000/svg">
<g clip-path="url(#clip0_21_1344)">
<path fill-rule="evenodd" clip-rule="evenodd" d="M20 6.66667C12.6362 6.66667 6.66671 12.6362 6.66671 20C6.66671 27.3638 12.6362 33.3333 20 33.3333C27.3639 33.3333 33.3334 27.3638 33.3334 20C33.3334 12.6362 27.3639 6.66667 20 6.66667ZM3.33337 20C3.33337 10.7953 10.7953 3.33334 20 3.33334C29.2047 3.33334 36.6667 10.7953 36.6667 20C36.6667 29.2047 29.2047 36.6667 20 36.6667C10.7953 36.6667 3.33337 29.2047 3.33337 20Z" fill="#818081"/>
<path d="M28.5708 19.175H20.165V21.6775H26.1325C25.83 25.17 22.9242 26.6642 20.1742 26.6642C16.6633 26.6642 13.5833 23.8958 13.5833 20C13.5833 16.2417 16.5167 13.3358 20.1833 13.3358C23.0158 13.3358 24.675 15.1417 24.675 15.1417L26.4167 13.3267C26.4167 13.3267 24.18 10.8333 20.0917 10.8333C14.885 10.8333 10.8608 15.2333 10.8608 20C10.8608 24.6292 14.6467 29.1667 20.2292 29.1667C25.1333 29.1667 28.7083 25.8025 28.7083 20.8342C28.7083 19.78 28.5708 19.175 28.5708 19.175Z" fill="#818081"/>
</g>
<defs>
<clipPath id="clip0_21_1344">
<rect width="40" height="40" fill="white"/>
</clipPath>
</defs>
</svg>
