<svg width="40" height="40" viewBox="0 0 40 40" fill="none" xmlns="http://www.w3.org/2000/svg">
<path fill-rule="evenodd" clip-rule="evenodd" d="M20.0002 6.66667C12.6364 6.66667 6.66683 12.6362 6.66683 20C6.66683 27.3638 12.6364 33.3333 20.0002 33.3333C27.364 33.3333 33.3335 27.3638 33.3335 20C33.3335 12.6362 27.364 6.66667 20.0002 6.66667ZM3.3335 20C3.3335 10.7953 10.7954 3.33334 20.0002 3.33334C29.2048 3.33334 36.6668 10.7953 36.6668 20C36.6668 29.2047 29.2048 36.6667 20.0002 36.6667C10.7954 36.6667 3.3335 29.2047 3.3335 20ZM11.6668 20C11.6668 19.0795 12.413 18.3333 13.3335 18.3333H14.9972L14.9999 16.0072C14.9999 12.6885 17.6902 10 21.0093 10C22.9002 10 24.6737 10.8895 25.8048 12.3879L26.3867 13.2422C26.8973 14.0081 26.6903 15.0428 25.9245 15.5534C25.2133 16.0275 24.2702 15.883 23.7303 15.2467C23.0525 14.2576 22.3438 13.3333 21.0093 13.3333C19.5018 13.3333 18.3985 14.5549 18.3333 16.0072V18.3333H21.6668C22.5873 18.3333 23.3335 19.0795 23.3335 20C23.3335 20.9205 22.5873 21.6667 21.6668 21.6667H18.3333V25C18.3333 25.4392 18.2955 25.8788 18.2033 26.3083C18.9987 26.3755 19.7648 26.5215 20.527 26.7522C21.8188 27.1828 23.174 27.0695 24.4728 26.7522C25.3462 26.4612 26.29 26.933 26.5812 27.8063C26.8722 28.6795 26.4002 29.6233 25.527 29.9145C23.5337 30.4425 21.4622 30.5775 19.4728 29.9145C18.181 29.4838 16.8258 29.5972 15.527 29.9145C13.5633 30.569 12.4286 27.8747 14.2546 26.8427C14.5995 26.6477 14.9414 25.957 14.9891 25.2907L14.9934 21.6667H13.3335C12.413 21.6667 11.6668 20.9205 11.6668 20Z" fill="#D2C5A0"/>
</svg>
