<svg width="34" height="34" viewBox="0 0 34 34" fill="none" xmlns="http://www.w3.org/2000/svg">
<path fill-rule="evenodd" clip-rule="evenodd" d="M17 3.66667C9.63618 3.66667 3.66665 9.6362 3.66665 17C3.66665 24.3638 9.63618 30.3333 17 30.3333C24.3638 30.3333 30.3333 24.3638 30.3333 17C30.3333 9.6362 24.3638 3.66667 17 3.66667ZM0.333313 17C0.333313 7.79525 7.79523 0.333336 17 0.333336C26.2046 0.333336 33.6666 7.79525 33.6666 17C33.6666 26.2047 26.2046 33.6667 17 33.6667C7.79523 33.6667 0.333313 26.2047 0.333313 17ZM8.66665 17C8.66665 16.0795 9.41285 15.3333 10.3333 15.3333H11.9971L11.9998 13.0072C11.9998 9.68854 14.69 7 18.0091 7C19.9 7 21.6735 7.88954 22.8046 9.3879L23.3865 10.2422C23.8971 11.0081 23.6901 12.0428 22.9243 12.5534C22.2131 13.0275 21.27 12.883 20.7301 12.2467C20.0523 11.2576 19.3436 10.3333 18.0091 10.3333C16.5016 10.3333 15.3983 11.5549 15.3331 13.0072V15.3333H18.6666C19.5871 15.3333 20.3333 16.0795 20.3333 17C20.3333 17.9205 19.5871 18.6667 18.6666 18.6667H15.3331V22C15.3331 22.4392 15.2953 22.8788 15.2031 23.3083C15.9985 23.3755 16.7646 23.5215 17.5268 23.7522C18.8186 24.1828 20.1738 24.0695 21.4726 23.7522C22.346 23.4612 23.2898 23.933 23.581 24.8063C23.872 25.6795 23.4 26.6233 22.5268 26.9145C20.5335 27.4425 18.462 27.5775 16.4726 26.9145C15.1808 26.4838 13.8256 26.5972 12.5268 26.9145C10.5631 27.569 9.42845 24.8747 11.2544 23.8427C11.5993 23.6477 11.9412 22.957 11.989 22.2907L11.9932 18.6667H10.3333C9.41285 18.6667 8.66665 17.9205 8.66665 17Z" fill="#818081"/>
</svg>
