<svg width="34" height="34" viewBox="0 0 34 34" fill="none" xmlns="http://www.w3.org/2000/svg">
<path d="M17 0.333336C26.2047 0.333336 33.6667 7.79525 33.6667 17C33.6667 26.2047 26.2047 33.6667 17 33.6667C7.79529 33.6667 0.333374 26.2047 0.333374 17C0.333374 7.79525 7.79529 0.333336 17 0.333336ZM17 3.66667C9.63624 3.66667 3.66671 9.6362 3.66671 17C3.66671 24.3638 9.63624 30.3333 17 30.3333C24.3639 30.3333 30.3334 24.3638 30.3334 17C30.3334 9.6362 24.3639 3.66667 17 3.66667ZM17 7C17.8548 7 18.5592 7.64341 18.6555 8.4723L18.6667 8.66667V16.3097L23.1785 20.8215C23.8294 21.4723 23.8294 22.5277 23.1785 23.1785C22.5778 23.7793 21.6323 23.8255 20.9785 23.3171L20.8215 23.1785L15.8215 18.1785C15.5611 17.9181 15.3957 17.5802 15.3478 17.2191L15.3334 17V8.66667C15.3334 7.7462 16.0795 7 17 7Z" fill="#707070"/>
</svg>
