<svg width="40" height="40" viewBox="0 0 40 40" fill="none" xmlns="http://www.w3.org/2000/svg">
<path d="M20.0002 3.33334C29.2048 3.33334 36.6668 10.7953 36.6668 20C36.6668 29.2047 29.2048 36.6667 20.0002 36.6667C10.7954 36.6667 3.3335 29.2047 3.3335 20C3.3335 10.7953 10.7954 3.33334 20.0002 3.33334ZM20.0002 6.66667C12.6364 6.66667 6.66683 12.6362 6.66683 20C6.66683 27.3638 12.6364 33.3333 20.0002 33.3333C27.364 33.3333 33.3335 27.3638 33.3335 20C33.3335 12.6362 27.364 6.66667 20.0002 6.66667ZM20.0002 10C20.8549 10 21.5593 10.6434 21.6556 11.4723L21.6668 11.6667V19.3097L26.1787 23.8215C26.8295 24.4723 26.8295 25.5277 26.1787 26.1785C25.5779 26.7793 24.6325 26.8255 23.9787 26.3171L23.8217 26.1785L18.8217 21.1785C18.5612 20.9181 18.3959 20.5802 18.348 20.2191L18.3335 20V11.6667C18.3335 10.7462 19.0797 10 20.0002 10Z" fill="#D2C5A0"/>
</svg>
