<svg width="14" height="12" viewBox="0 0 14 12" fill="none" xmlns="http://www.w3.org/2000/svg">
<path d="M5.66665 0C8.38071 0 10.8 1.78035 10.9882 4.24567C12.5241 4.8198 13.6666 6.11927 13.6666 7.75233C13.6666 8.997 12.9824 10.0666 11.9872 10.7471C11.971 10.8444 11.9695 10.942 11.9721 11.0398L11.9814 11.3333C11.9814 11.7015 11.683 12 11.3148 12C10.8096 12 10.3415 11.8355 9.94531 11.5268C9.70518 11.561 9.45891 11.5787 9.20831 11.5787C7.36391 11.5787 5.6609 10.5847 5.01937 9.07793C4.91755 9.06747 4.81658 9.05453 4.71652 9.0392C4.23963 9.41713 3.6902 9.6296 3.07405 9.6296C2.70587 9.6296 2.40739 9.33113 2.40739 8.96293L2.41067 8.82712L2.42277 8.55372C2.42592 8.41705 2.42002 8.28107 2.38377 8.1486C1.16531 7.336 0.333313 6.04833 0.333313 4.55555C0.333313 1.93095 2.8401 0 5.66665 0ZM9.20831 5.25927C7.36345 5.25927 6.08331 6.48413 6.08331 7.75233C6.08331 9.02053 7.36345 10.2454 9.20831 10.2454C9.45638 10.2454 9.69691 10.2222 9.92705 10.1787C10.2166 10.1239 10.4732 10.2451 10.6936 10.4188C10.7599 10.13 10.91 9.85707 11.1644 9.69313C11.9088 9.21353 12.3333 8.50187 12.3333 7.75233C12.3333 6.48413 11.0532 5.25927 9.20831 5.25927ZM5.66665 1.33333C3.33853 1.33333 1.66665 2.88462 1.66665 4.55555C1.66665 5.54 2.22445 6.4606 3.17586 7.0736C3.53025 7.30193 3.68211 7.71147 3.72983 8.1126L4.05084 7.88484C4.25608 7.74576 4.4708 7.64063 4.75049 7.69247C4.78809 5.50167 6.88611 3.92595 9.20831 3.92595C9.33665 3.92595 9.46431 3.93076 9.59098 3.94022C9.24051 2.52264 7.70511 1.33333 5.66665 1.33333ZM8.07998 6.66667C8.44818 6.66667 8.74665 6.96513 8.74665 7.33333C8.74665 7.70153 8.44818 8 8.07998 8C7.71178 8 7.41331 7.70153 7.41331 7.33333C7.41331 6.96513 7.71178 6.66667 8.07998 6.66667ZM10.3333 6.66667C10.7015 6.66667 11 6.96513 11 7.33333C11 7.70153 10.7015 8 10.3333 8C9.96511 8 9.66665 7.70153 9.66665 7.33333C9.66665 6.96513 9.96511 6.66667 10.3333 6.66667ZM4.33331 2.66667C4.7015 2.66667 4.99998 2.96515 4.99998 3.33333C4.99998 3.70152 4.7015 4 4.33331 4C3.96513 4 3.66665 3.70152 3.66665 3.33333C3.66665 2.96515 3.96513 2.66667 4.33331 2.66667ZM6.99998 2.66667C7.36818 2.66667 7.66665 2.96515 7.66665 3.33333C7.66665 3.70152 7.36818 4 6.99998 4C6.63178 4 6.33331 3.70152 6.33331 3.33333C6.33331 2.96515 6.63178 2.66667 6.99998 2.66667Z" fill="#70798B"/>
</svg>
