<svg width="14" height="14" viewBox="0 0 14 14" fill="none" xmlns="http://www.w3.org/2000/svg">
<path fill-rule="evenodd" clip-rule="evenodd" d="M1.66665 6.99999C1.66665 4.05447 4.05446 1.66666 6.99998 1.66666C9.94551 1.66666 12.3333 4.05447 12.3333 6.99999C12.3333 9.71973 10.2975 11.964 7.66665 12.2921V8.33333H8.99998C9.36818 8.33333 9.66665 8.03486 9.66665 7.66666C9.66665 7.29846 9.36818 6.99999 8.99998 6.99999H7.66665V5.66666C7.66665 5.29847 7.96511 4.99999 8.33331 4.99999H8.66665C9.03485 4.99999 9.33331 4.70151 9.33331 4.33333C9.33331 3.96514 9.03485 3.66666 8.66665 3.66666H8.33331C7.22871 3.66666 6.33331 4.56209 6.33331 5.66666V6.99999H4.99998C4.63179 6.99999 4.33331 7.29846 4.33331 7.66666C4.33331 8.03486 4.63179 8.33333 4.99998 8.33333H6.33331V12.2921C3.70244 11.964 1.66665 9.71973 1.66665 6.99999ZM6.99998 13.6667C10.6818 13.6667 13.6666 10.6819 13.6666 6.99999C13.6666 3.31809 10.6818 0.333328 6.99998 0.333328C3.31808 0.333328 0.333313 3.31809 0.333313 6.99999C0.333313 10.6819 3.31808 13.6667 6.99998 13.6667Z" fill="#70798B"/>
</svg>
