<svg width="15" height="15" viewBox="0 0 15 15" fill="none" xmlns="http://www.w3.org/2000/svg">
<path fill-rule="evenodd" clip-rule="evenodd" d="M6.97441 0C7.90679 0.0333014 8.87248 0.0333014 9.80487 0.0665998C10.6374 0.0998974 11.4032 0.233096 12.1358 0.665987C13.0682 1.23208 13.6343 2.06456 13.8341 3.13014C13.934 3.76283 13.9673 4.42881 14.0006 5.06151C14.0339 6.46008 14.0006 7.85865 14.0006 9.25722C14.0006 9.98981 13.9673 10.7224 13.7342 11.4217C13.268 12.787 12.3023 13.6194 10.9038 13.8858C10.2711 14.019 9.60507 14.019 8.97238 14.0523C7.5738 14.0856 6.20852 14.0523 4.80993 14.0523C4.07734 14.0523 3.34475 14.019 2.64547 13.7859C1.28018 13.3197 0.447694 12.3541 0.181296 10.9555C0.0481006 10.3228 0.0481006 9.65681 0.0148002 9.02413C-0.0185002 7.62555 0.0148002 6.22698 0.0148002 4.82841C0.0148002 4.09582 0.0481006 3.36324 0.281196 2.66395C0.747392 1.29867 1.71308 0.466194 3.11166 0.199798C3.74435 0.0666037 4.41034 0.0666037 5.04303 0.0333014C5.67572 0 6.30841 0 6.97441 0ZM12.7352 6.89297C12.7019 6.89297 12.7352 6.89297 12.7352 6.89297C12.7019 6.32688 12.7019 5.79409 12.7019 5.228C12.7019 4.69521 12.6686 4.16242 12.602 3.62963C12.4688 2.43085 11.7695 1.63167 10.6041 1.39857C10.0047 1.26538 9.33867 1.26538 8.73928 1.26538C7.5405 1.23208 6.37501 1.23208 5.17623 1.26538C4.57684 1.26538 3.97745 1.29867 3.41135 1.39857C2.41237 1.56507 1.71308 2.13116 1.41338 3.13014C1.31348 3.46313 1.28018 3.79613 1.24688 4.12912C1.21358 5.3945 1.21358 6.65987 1.21358 7.92525C1.21358 8.72443 1.24688 9.55692 1.31348 10.3561C1.41338 11.5549 2.14597 12.3874 3.34476 12.5872C3.94414 12.6871 4.57684 12.7204 5.20953 12.7204C6.37501 12.7537 7.5405 12.7204 8.73928 12.7204C9.27208 12.7204 9.80487 12.6871 10.3377 12.6205C10.8372 12.5872 11.3033 12.4207 11.7029 12.0877C12.3689 11.5549 12.602 10.8556 12.6353 10.0564C12.7019 9.05743 12.7019 7.99185 12.7352 6.89297Z" fill="white"/>
<path fill-rule="evenodd" clip-rule="evenodd" d="M10.5707 7.02649C10.5707 9.02444 8.97232 10.6228 6.97435 10.6228C4.97637 10.6228 3.37799 9.02444 3.37799 6.99319C3.37799 5.02853 5.00967 3.43018 7.00764 3.43018C8.97232 3.43018 10.5707 5.02853 10.5707 7.02649ZM6.97435 9.35743C8.23973 9.35743 9.30531 8.29185 9.30531 7.02649C9.30531 5.76112 8.23973 4.69554 6.97435 4.69554C5.67566 4.69554 4.64337 5.76112 4.64337 7.02649C4.61007 8.29185 5.67566 9.35743 6.97435 9.35743Z" fill="white"/>
<path d="M11.5369 3.26364C11.5369 3.72984 11.1706 4.12943 10.7044 4.12943C10.2382 4.12943 9.83864 3.72984 9.87194 3.26364C9.87194 2.79745 10.2382 2.43115 10.7044 2.43115C11.1706 2.43115 11.5369 2.79745 11.5369 3.26364Z" fill="white"/>
</svg>
