<svg width="15" height="14" viewBox="0 0 15 14" fill="none" xmlns="http://www.w3.org/2000/svg">
<path fill-rule="evenodd" clip-rule="evenodd" d="M14.1794 8.19862V13.3741H11.1572V8.53862C11.1572 7.32974 10.7417 6.49865 9.64613 6.49865C8.81503 6.49865 8.32392 7.06531 8.09725 7.59419C8.0217 7.78307 7.98392 8.04751 7.98392 8.31195V13.3741H4.96173C4.96173 13.3741 4.99951 5.17645 4.96173 4.34535H7.98392V5.62978C7.98392 5.62978 7.98392 5.66755 7.94614 5.66755H7.98392V5.62978C8.39947 5.02534 9.07947 4.11869 10.7039 4.11869C12.6683 4.11869 14.1794 5.44089 14.1794 8.19862ZM1.86399 0.000976562C0.843992 0.000976562 0.164001 0.680964 0.164001 1.54984C0.164001 2.41871 0.806217 3.09871 1.8262 3.09871H1.86399C2.92175 3.09871 3.56397 2.41872 3.56397 1.54984C3.52619 0.680964 2.88397 0.000976562 1.86399 0.000976562ZM0.315105 13.3741H3.29952V4.34535H0.315105V13.3741Z" fill="white"/>
</svg>
