<svg width="15" height="12" viewBox="0 0 15 12" fill="none" xmlns="http://www.w3.org/2000/svg">
<path fill-rule="evenodd" clip-rule="evenodd" d="M14.3874 1.5132C13.8598 1.74404 13.3321 1.90893 12.7386 1.97488C13.3321 1.61213 13.7938 1.05152 13.9917 0.391972C13.4311 0.721745 12.8045 0.952585 12.1779 1.08449C11.6503 0.52388 10.8918 0.161133 10.0674 0.161133C8.48446 0.161133 7.19834 1.44724 7.19834 3.03015C7.19834 3.26099 7.23132 3.49183 7.2643 3.6897C4.85695 3.55779 2.74639 2.43656 1.32835 0.68877C1.06454 1.11747 0.932626 1.61213 0.932626 2.13976C0.932626 3.12909 1.42729 4.01947 2.21875 4.5471C1.75706 4.5471 1.29538 4.4152 0.899648 4.18435V4.21733C0.899648 5.60238 1.88897 6.78955 3.20807 7.05337C2.97723 7.11932 2.71341 7.1523 2.44959 7.1523C2.25172 7.1523 2.08684 7.11932 1.92195 7.08635C2.2847 8.24054 3.33998 9.06498 4.6261 9.09795C3.63678 9.85643 2.41661 10.3181 1.06454 10.3181C0.833694 10.3181 0.602854 10.3181 0.372009 10.2851C1.65813 11.1096 3.14211 11.5712 4.79099 11.5712C10.1004 11.5712 12.9694 7.18528 12.9694 3.3929C12.9694 3.26099 12.9694 3.12909 12.9694 3.03015C13.53 2.60145 14.0247 2.07381 14.3874 1.5132Z" fill="white"/>
</svg>
