<svg width="13" height="12" viewBox="0 0 13 12" fill="none" xmlns="http://www.w3.org/2000/svg">
<path fill-rule="evenodd" clip-rule="evenodd" d="M9.87807 2.65933C9.64274 2.3205 9.01347 1.84496 7.994 2.04972C7.3996 2.16912 7.04394 2.46381 6.81794 2.8515C6.57714 3.26446 6.4608 3.82648 6.4608 4.48076C6.4608 4.84894 6.16234 5.1474 5.79414 5.1474C4.21675 5.1474 2.71548 4.679 1.45213 3.41128C1.3702 3.86732 1.31303 4.4092 1.34014 4.97107C1.37508 5.69507 1.5482 6.42147 1.95815 7.04347C2.3611 7.65487 3.0248 8.21494 4.13377 8.56647C4.35489 8.63654 4.52368 8.81654 4.57944 9.04167C4.63521 9.2668 4.56993 9.5048 4.40708 9.67C4.0131 10.0696 3.61686 10.3693 3.20973 10.6066C3.91691 10.6797 4.59808 10.6851 5.2298 10.6279C6.50954 10.5122 7.52907 10.1459 8.16667 9.62854C9.5084 8.53974 10.2269 6.91727 10.0929 4.19884C10.0709 3.75149 10.5017 3.26986 10.7098 2.90411C10.3959 2.96281 10.0812 2.95182 9.87807 2.65933ZM1.0625 1.32253C1.3086 1.29384 1.55031 1.404 1.69011 1.60855C2.6737 3.04776 3.85508 3.64646 5.16594 3.78268C5.23027 3.22188 5.3816 2.66778 5.66607 2.17994C6.08334 1.46418 6.762 0.937217 7.73147 0.742497C9.07107 0.47343 10.0911 0.958563 10.6829 1.5527L11.8775 1.3294C12.1327 1.2817 12.3923 1.38644 12.5429 1.59782C12.6935 1.80921 12.7078 2.08881 12.5794 2.31442L11.4331 4.32914C11.5376 7.23674 10.7296 9.26587 9.00687 10.6639C8.093 11.4054 6.78534 11.826 5.34994 11.9559C3.90332 12.0867 2.2681 11.9285 0.642549 11.4538C0.357363 11.3705 0.161696 11.1086 0.162749 10.8115C0.163796 10.5144 0.361303 10.2539 0.647069 10.1726C1.46455 9.94014 2.08675 9.73914 2.64918 9.38814C1.85021 8.96394 1.2615 8.4094 0.844843 7.7772C0.265729 6.89847 0.0509893 5.91887 0.00835599 5.03534C-0.0342707 4.1519 0.0933959 3.33366 0.227856 2.7431C0.304396 2.40693 0.393796 2.06919 0.517023 1.74656C0.606523 1.51402 0.816409 1.35122 1.0625 1.32253Z" fill="#707070"/>
</svg>
