<svg width="14" height="12" viewBox="0 0 14 12" fill="none" xmlns="http://www.w3.org/2000/svg">
<path d="M6.99998 0.666668C7.57026 0.666668 8.1544 0.681614 8.72109 0.705179L9.39074 0.73719L10.0316 0.775047L10.6317 0.81632L11.179 0.858581C12.4043 0.958015 13.389 1.90628 13.5088 3.14073L13.5354 3.42375L13.5854 4.03038C13.6321 4.6592 13.6666 5.34489 13.6666 6C13.6666 6.65511 13.6321 7.3408 13.5854 7.96962L13.5354 8.57625C13.5266 8.67311 13.5177 8.76759 13.5088 8.85927C13.389 10.0937 12.4043 11.042 11.179 11.1414L10.6317 11.1837L10.0316 11.2249L9.39074 11.2628L8.72109 11.2948C8.1544 11.3184 7.57026 11.3333 6.99998 11.3333C6.42971 11.3333 5.84557 11.3184 5.27887 11.2948L4.60922 11.2628L3.96833 11.2249L3.36825 11.1837L2.82098 11.1414C1.59565 11.042 0.610913 10.0937 0.4911 8.85927L0.464594 8.57625L0.414595 7.96962C0.367843 7.3408 0.333313 6.65511 0.333313 6C0.333313 5.34489 0.367843 4.6592 0.414595 4.03038L0.464594 3.42375C0.473331 3.32689 0.4822 3.23241 0.4911 3.14073C0.610913 1.90628 1.59565 0.958015 2.82098 0.858581L3.36825 0.81632L3.96833 0.775047L4.60922 0.73719L5.27887 0.705179C5.84556 0.681614 6.42971 0.666668 6.99998 0.666668ZM6.99998 2C6.44974 2 5.88394 2.01448 5.33309 2.03741L4.6812 2.06858L4.05538 2.10554L3.46735 2.14597L2.92883 2.18754C2.33595 2.23565 1.87461 2.68833 1.81819 3.26953C1.73999 4.07525 1.66665 5.07873 1.66665 6C1.66665 6.92127 1.73999 7.92473 1.81819 8.73047C1.87461 9.31167 2.33595 9.76433 2.92883 9.81247L3.46735 9.85405L4.05538 9.89448L4.6812 9.93143L5.33309 9.9626C5.88394 9.98553 6.44974 10 6.99998 10C7.55021 10 8.11601 9.98553 8.66686 9.9626L9.31876 9.93143L9.94458 9.89448L10.5326 9.85405L11.0711 9.81247C11.664 9.76433 12.1254 9.31167 12.1818 8.73047C12.26 7.92473 12.3333 6.92127 12.3333 6C12.3333 5.07873 12.26 4.07525 12.1818 3.26953C12.1254 2.68833 11.664 2.23565 11.0711 2.18754L10.5326 2.14597L9.94458 2.10554L9.31876 2.06858L8.66686 2.03741C8.11601 2.01448 7.55021 2 6.99998 2ZM5.66665 4.38342C5.66665 4.09603 5.95702 3.90922 6.21254 4.01077L6.26665 4.03701L9.06665 5.6536C9.3128 5.79569 9.33173 6.13461 9.12345 6.30699L9.06665 6.3464L6.26665 7.963C6.01776 8.10667 5.71079 7.94865 5.67097 7.67658L5.66665 7.6166V4.38342Z" fill="#3A7065"/>
</svg>
