<svg width="50" height="50" viewBox="0 0 50 50" fill="none" xmlns="http://www.w3.org/2000/svg">
<path d="M13.2784 15.5608C15.66 4.4358 30.5409 3.33247 33.935 14.6608L34.0209 14.9625L34.06 14.9675C34.3367 14.9983 34.6242 15.0325 34.9217 15.07L35.8442 15.1925C38.1117 15.5083 40.3809 15.9333 42.5109 16.485C43.59 16.765 44.6084 17.0708 45.5559 17.4066C45.9634 17.5609 46.2944 17.8686 46.4778 18.2639C46.6612 18.6592 46.6825 19.1106 46.5371 19.5214C46.3918 19.9322 46.0913 20.2697 45.7001 20.4616C45.3089 20.6536 44.8581 20.6847 44.4442 20.5483C43.5336 20.2297 42.6097 19.9506 41.675 19.7116C39.6825 19.195 37.5342 18.7933 35.385 18.4941C34.7817 18.41 34.2134 18.3391 33.69 18.2808L32.89 18.1975C32.7325 18.1816 32.615 18.1716 32.5384 18.165C32.1741 18.1361 31.8294 17.9884 31.5573 17.7445C31.2852 17.5005 31.1008 17.174 31.0325 16.815C30.1492 12.175 27.1167 9.76997 23.4875 10.0166C19.9142 10.2591 16.9309 13.0133 16.3925 17.1041C16.3566 17.3769 16.2537 17.6366 16.0931 17.8599C15.9324 18.0833 15.7189 18.2634 15.4717 18.3841L15.2167 18.5025C14.75 18.7108 14.0709 18.97 13.2192 19.2258C10.4534 20.055 7.52421 20.3283 4.64421 19.6991C4.21974 19.5977 3.85201 19.3338 3.62 18.9641C3.388 18.5945 3.31025 18.1486 3.40344 17.7222C3.49663 17.2959 3.75334 16.9231 4.11841 16.6839C4.48348 16.4448 4.92779 16.3584 5.35587 16.4433C7.61004 16.935 9.99421 16.7125 12.2617 16.0325C12.5567 15.9441 12.8334 15.8525 13.0917 15.7591L13.2492 15.7008L13.2784 15.5608ZM43.4959 39.2333C43.8641 38.9885 44.3144 38.9001 44.7479 38.9873C45.1813 39.0746 45.5624 39.3305 45.8071 39.6987C46.0519 40.0669 46.1404 40.5173 46.0531 40.9507C45.9658 41.3842 45.7099 41.7652 45.3417 42.01C42.1834 44.11 38.8825 44.465 33.2117 43.9666L30.21 43.68C29.5777 43.6196 28.9442 43.571 28.31 43.5341L27.6967 43.5041C26.1534 43.4416 24.5367 43.4725 22.3992 43.5858L20.1559 43.7191L18.6017 43.8141C12.0667 44.1891 8.91837 44.0491 5.07171 42.9075C4.64791 42.7816 4.29148 42.4925 4.08081 42.1039C3.87015 41.7152 3.82251 41.2588 3.94837 40.835C4.07424 40.4112 4.3633 40.0547 4.75197 39.8441C5.14064 39.6334 5.59708 39.5858 6.02087 39.7116L6.47754 39.8425C9.58254 40.7008 12.4159 40.8175 18.0225 40.5075L21.3192 40.3075L22.2892 40.2533C24.6359 40.1308 26.4042 40.1033 28.1525 40.1875L28.8142 40.225C29.4292 40.2641 30.0109 40.3125 30.9242 40.3991L33.1209 40.6108L33.8834 40.6775C38.5975 41.065 41.2142 40.7508 43.4959 39.2341V39.2333Z" fill="url(#paint0_linear_37_457)"/>
<path d="M26.5784 19.9383C26.432 19.9261 26.287 19.9007 26.1451 19.8625C24.9351 19.535 24.1868 18.3483 24.0734 17.3458C23.9559 16.3075 24.4701 15.4433 25.4459 15.0366C25.7871 14.895 26.1561 14.8331 26.5248 14.8558C26.8935 14.8784 27.2522 14.9851 27.5734 15.1675C28.5892 15.7383 29.0884 16.92 29.0559 17.7925C29.0423 18.3103 28.8399 18.8052 28.4867 19.1841C27.9784 19.7291 27.2868 19.9958 26.5784 19.9383Z" fill="url(#paint1_linear_37_457)"/>
<path d="M34.4501 31.6666C34.7846 31.6666 35.1114 31.7672 35.388 31.9554C35.6646 32.1437 35.8781 32.4107 36.0008 32.722C36.1235 33.0332 36.1497 33.3741 36.076 33.7004C36.0023 34.0268 35.8321 34.3233 35.5876 34.5516L35.4867 34.6383C33.5367 36.1866 31.5226 36.4591 28.2226 36.1233L26.0809 35.8833L25.7009 35.8483L25.4117 35.8266C24.5267 35.7666 23.6226 35.7775 22.3867 35.8525L19.5642 36.0508L18.8584 36.0925C16.9467 36.1925 15.7476 36.1508 14.3692 35.9125L14.1667 35.8766L14.7701 32.5983L15.1059 32.6566L15.4542 32.7066C16.6167 32.855 17.8242 32.8341 19.9859 32.6816L21.5051 32.57L22.2126 32.5233C23.4542 32.4483 24.4201 32.4325 25.3776 32.485L25.8876 32.5191L26.4501 32.5708C26.7051 32.5958 27.0001 32.6291 27.3909 32.675L28.2559 32.775L28.8117 32.8316C31.0459 33.0391 32.2742 32.87 33.2926 32.1208L33.4142 32.0283C33.7085 31.7938 34.0738 31.6662 34.4501 31.6666Z" fill="url(#paint2_linear_37_457)"/>
<defs>
<linearGradient id="paint0_linear_37_457" x1="24.9988" y1="6.67407" x2="24.9988" y2="44.1666" gradientUnits="userSpaceOnUse">
<stop stop-color="#E4EFE1"/>
<stop offset="1" stop-color="#E4EFE1" stop-opacity="0"/>
</linearGradient>
<linearGradient id="paint1_linear_37_457" x1="26.5571" y1="14.8512" x2="26.5571" y2="19.946" gradientUnits="userSpaceOnUse">
<stop stop-color="#E4EFE1"/>
<stop offset="1" stop-color="#E4EFE1" stop-opacity="0"/>
</linearGradient>
<linearGradient id="paint2_linear_37_457" x1="25.1419" y1="31.6666" x2="25.1419" y2="36.2508" gradientUnits="userSpaceOnUse">
<stop stop-color="#E4EFE1"/>
<stop offset="1" stop-color="#E4EFE1" stop-opacity="0"/>
</linearGradient>
</defs>
</svg>
