<svg width="49" height="49" viewBox="0 0 49 49" fill="none" xmlns="http://www.w3.org/2000/svg">
<g clip-path="url(#clip0_37_447)">
<path d="M4.25345 38.4999C2.87089 35.4316 2.6841 32.2837 3.74054 29.8661C5.23793 26.4457 9.10543 24.4048 12.6927 22.8584L13.5655 22.4848C17.4238 20.8343 21.4138 19.1287 24.0258 15.6439C26.8353 11.8928 27.2793 6.5769 25.1312 2.41544C24.9448 2.05465 24.6228 1.78267 24.2358 1.65935C23.8489 1.53603 23.4289 1.57145 23.0681 1.75784C22.7073 1.94422 22.4353 2.2663 22.312 2.65321C22.1887 3.04012 22.2241 3.46018 22.4105 3.82097C24.0334 6.9612 23.6966 10.9757 21.5745 13.8082C19.457 16.6361 15.8483 18.1779 12.3605 19.6691L11.4817 20.0458C7.34623 21.828 2.85711 24.2425 0.935608 28.6412C-0.466858 31.8489 -0.273943 35.9016 1.46077 39.7569C2.95204 43.0671 5.26243 45.8061 7.4978 48.4564C7.62749 48.6103 7.7862 48.737 7.96488 48.8295C8.14355 48.922 8.3387 48.9784 8.53916 48.9954C8.73963 49.0125 8.94149 48.9899 9.13322 48.9289C9.32496 48.868 9.50281 48.7699 9.65662 48.6402C9.81044 48.5105 9.9372 48.3518 10.0297 48.1731C10.1222 47.9944 10.1785 47.7993 10.1956 47.5988C10.2127 47.3984 10.1901 47.1965 10.1291 47.0048C10.0682 46.813 9.97004 46.6352 9.84035 46.4814C7.73971 43.9918 5.56865 41.4181 4.25345 38.4999Z" fill="url(#paint0_linear_37_447)"/>
<path d="M35.5991 6.1054L35.7063 1.57188C35.7109 1.37068 35.6759 1.17052 35.6031 0.982874C35.5304 0.795224 35.4214 0.623758 35.2823 0.478283C35.1432 0.332809 34.9768 0.216181 34.7926 0.135071C34.6084 0.0539614 34.4101 0.00996137 34.2089 0.00558804C33.3193 -0.0694347 32.6609 0.656296 32.641 1.50145L32.5032 7.49562C32.4938 7.90145 32.6459 8.29443 32.9261 8.58815C33.2063 8.88187 33.5917 9.05227 33.9976 9.06191C38.4117 9.16296 42.3756 11.3386 44.3415 14.7361C46.4253 18.3341 46.4697 23.0115 44.4548 26.6494C42.3618 30.4311 37.6033 33.5239 33.6179 33.6908C30.8344 33.7995 28.3678 32.4659 25.7435 31.0451C25.0637 30.6776 24.3778 30.3071 23.6796 29.955C21.4565 28.8342 18.6883 27.441 15.8712 28.4668C12.4477 29.7146 11.2473 34.0031 12.2777 37.2276C13.2423 40.2545 15.6308 42.4899 17.5523 44.2859C17.6991 44.4234 17.8716 44.5306 18.0599 44.6014C18.2482 44.6722 18.4486 44.7052 18.6497 44.6985C18.8507 44.6918 19.0485 44.6456 19.2317 44.5624C19.4148 44.4793 19.5798 44.3608 19.7172 44.2139C19.8547 44.0671 19.9619 43.8946 20.0327 43.7063C20.1035 43.518 20.1365 43.3176 20.1299 43.1165C20.1232 42.9155 20.0769 42.7177 19.9938 42.5345C19.9106 42.3513 19.7922 42.1863 19.6453 42.049C17.8968 40.4153 15.9171 38.5627 15.1944 36.2967C14.6111 34.4686 15.225 31.9622 16.9199 31.3437C18.4908 30.771 20.518 31.7907 22.3001 32.6895C22.9738 33.0263 23.6322 33.3846 24.286 33.7383C27.1598 35.2938 30.1102 36.8984 33.7465 36.7499C38.7761 36.5386 44.5314 32.8334 47.1342 28.133C49.6605 23.5735 49.6023 17.711 46.9903 13.2019C44.7289 9.2931 40.4526 6.65965 35.5975 6.1054H35.5991Z" fill="url(#paint1_linear_37_447)"/>
<path d="M38.9752 25.4827C39.0459 25.5543 39.13 25.6112 39.2228 25.6502C39.3156 25.6891 39.4151 25.7093 39.5158 25.7096C39.6164 25.7099 39.7161 25.6903 39.8091 25.6518C39.9021 25.6134 39.9866 25.557 40.0576 25.4857C41.4463 24.1047 42.2119 22.2705 42.2119 20.3199C42.2119 18.3693 41.4479 16.5351 40.0592 15.154C39.9883 15.0811 39.9037 15.0231 39.8102 14.9832C39.7167 14.9434 39.6162 14.9226 39.5146 14.922C39.4129 14.9214 39.3122 14.9411 39.2182 14.9798C39.1243 15.0186 39.039 15.0757 38.9673 15.1478C38.8957 15.2198 38.8391 15.3054 38.8008 15.3996C38.7626 15.4938 38.7435 15.5946 38.7447 15.6963C38.7458 15.7979 38.7672 15.8983 38.8076 15.9916C38.8479 16.0848 38.9065 16.1691 38.9798 16.2396C39.52 16.7727 39.9486 17.4081 40.2406 18.1087C40.5327 18.8092 40.6823 19.5609 40.6808 20.3199C40.682 21.079 40.5321 21.8307 40.2398 22.5312C39.9475 23.2318 39.5186 23.8671 38.9782 24.4002C38.8343 24.5433 38.7531 24.7378 38.7526 24.9408C38.752 25.1438 38.8321 25.3387 38.9752 25.4827Z" fill="url(#paint2_linear_37_447)"/>
</g>
<defs>
<linearGradient id="paint0_linear_37_447" x1="13.2446" y1="1.58704" x2="13.2446" y2="49.0009" gradientUnits="userSpaceOnUse">
<stop stop-color="#E4EFE1"/>
<stop offset="1" stop-color="#E4EFE1" stop-opacity="0"/>
</linearGradient>
<linearGradient id="paint1_linear_37_447" x1="30.4553" y1="0.000244141" x2="30.4553" y2="44.6994" gradientUnits="userSpaceOnUse">
<stop stop-color="#E4EFE1"/>
<stop offset="1" stop-color="#E4EFE1" stop-opacity="0"/>
</linearGradient>
<linearGradient id="paint2_linear_37_447" x1="40.4783" y1="14.922" x2="40.4783" y2="25.7096" gradientUnits="userSpaceOnUse">
<stop stop-color="#E4EFE1"/>
<stop offset="1" stop-color="#E4EFE1" stop-opacity="0"/>
</linearGradient>
<clipPath id="clip0_37_447">
<rect width="49" height="49" fill="white"/>
</clipPath>
</defs>
</svg>
