<svg width="82" height="82" viewBox="0 0 82 82" fill="none" xmlns="http://www.w3.org/2000/svg">
<path d="M17.9375 41C17.9375 42.3592 18.4775 43.6628 19.4386 44.6239C20.3997 45.585 21.7033 46.125 23.0625 46.125C24.4217 46.125 25.7253 45.585 26.6864 44.6239C27.6475 43.6628 28.1875 42.3592 28.1875 41C28.1875 39.6408 27.6475 38.3372 26.6864 37.3761C25.7253 36.415 24.4217 35.875 23.0625 35.875C21.7033 35.875 20.3997 36.415 19.4386 37.3761C18.4775 38.3372 17.9375 39.6408 17.9375 41Z" fill="url(#paint0_linear_102_299)"/>
<path d="M35.875 41C35.875 42.3592 36.415 43.6628 37.3761 44.6239C38.3372 45.585 39.6408 46.125 41 46.125C42.3592 46.125 43.6628 45.585 44.6239 44.6239C45.585 43.6628 46.125 42.3592 46.125 41C46.125 39.6408 45.585 38.3372 44.6239 37.3761C43.6628 36.415 42.3592 35.875 41 35.875C39.6408 35.875 38.3372 36.415 37.3761 37.3761C36.415 38.3372 35.875 39.6408 35.875 41Z" fill="url(#paint1_linear_102_299)"/>
<path d="M53.8125 41C53.8125 42.3592 54.3525 43.6628 55.3136 44.6239C56.2747 45.585 57.5783 46.125 58.9375 46.125C60.2967 46.125 61.6003 45.585 62.5614 44.6239C63.5225 43.6628 64.0625 42.3592 64.0625 41C64.0625 39.6408 63.5225 38.3372 62.5614 37.3761C61.6003 36.415 60.2967 35.875 58.9375 35.875C57.5783 35.875 56.2747 36.415 55.3136 37.3761C54.3525 38.3372 53.8125 39.6408 53.8125 41Z" fill="url(#paint2_linear_102_299)"/>
<defs>
<linearGradient id="paint0_linear_102_299" x1="23.0625" y1="35.875" x2="23.0625" y2="46.125" gradientUnits="userSpaceOnUse">
<stop stop-color="#E4EFE1"/>
<stop offset="1" stop-color="#E4EFE1" stop-opacity="0"/>
</linearGradient>
<linearGradient id="paint1_linear_102_299" x1="41" y1="35.875" x2="41" y2="46.125" gradientUnits="userSpaceOnUse">
<stop stop-color="#E4EFE1"/>
<stop offset="1" stop-color="#E4EFE1" stop-opacity="0"/>
</linearGradient>
<linearGradient id="paint2_linear_102_299" x1="58.9375" y1="35.875" x2="58.9375" y2="46.125" gradientUnits="userSpaceOnUse">
<stop stop-color="#E4EFE1"/>
<stop offset="1" stop-color="#E4EFE1" stop-opacity="0"/>
</linearGradient>
</defs>
</svg>
