<svg width="46" height="46" viewBox="0 0 46 46" fill="none" xmlns="http://www.w3.org/2000/svg">
<path d="M34.2421 9.41331L33.5039 3.49887C33.4602 3.14505 33.2778 2.82306 32.9968 2.60372C32.7157 2.38439 32.3591 2.28569 32.0053 2.32933C31.8301 2.35093 31.6608 2.40684 31.5073 2.49384C31.3537 2.58085 31.2187 2.69726 31.1101 2.83641C30.8908 3.11746 30.7921 3.47412 30.8357 3.82795L31.6451 10.2849C31.669 10.4606 31.7278 10.6297 31.8179 10.7824C31.908 10.9351 32.0276 11.0684 32.1698 11.1743C32.2587 11.2454 41.4283 18.156 41.3216 26.7653C41.2771 31.7014 38.2087 36.3084 32.2143 40.5241C32.0668 40.6233 31.9406 40.751 31.8432 40.8996C31.7458 41.0483 31.679 41.2149 31.6469 41.3897C31.6147 41.5645 31.6178 41.744 31.656 41.9176C31.6942 42.0911 31.7667 42.2553 31.8692 42.4005C31.9717 42.5457 32.1022 42.669 32.253 42.763C32.4038 42.8571 32.5719 42.92 32.7474 42.9482C32.9229 42.9764 33.1022 42.9692 33.2749 42.9272C33.4476 42.8851 33.6101 42.8089 33.7529 42.7031C40.4856 37.9271 43.9364 32.5908 44.0076 26.8097C44.1143 17.9336 36.2699 11.0498 34.2421 9.41331ZM23.8985 29.9226C20.1418 27.9178 16.7331 25.32 13.8039 22.2294C13.6943 22.1119 13.6145 21.9698 13.5712 21.815C13.5279 21.6602 13.5223 21.4974 13.5549 21.34C15.1558 14.1537 16.6766 10.9697 17.2636 10.5962C17.5998 10.4841 17.8776 10.2432 18.0361 9.92626C18.1945 9.60936 18.2206 9.24248 18.1086 8.90635C17.9965 8.57022 17.7555 8.29237 17.4386 8.13392C17.1217 7.97546 16.7549 7.94939 16.4187 8.06144C15.6361 8.31936 13.5638 9.01308 10.949 20.753C10.8118 21.3392 10.8212 21.9502 10.9764 22.5319C11.1315 23.1136 11.4276 23.6481 11.8384 24.0882C14.9698 27.4089 18.6267 30.1914 22.6622 32.324C25.4015 33.6936 25.5794 34.6186 25.5883 34.7965C25.5883 35.1255 25.2326 35.4635 25.0547 35.5969C18.3398 38.1406 10.611 30.3139 6.422 26.0982L5.65713 25.3245C3.04232 22.7097 5.94173 15.5412 7.85391 10.8452C8.37865 9.54671 8.87671 8.31046 9.21468 7.28767C10.4598 3.61449 14.8445 4.13034 15.0402 4.1837C15.2154 4.20823 15.3937 4.19801 15.5649 4.15362C15.7362 4.10924 15.897 4.03156 16.0382 3.92502C16.1794 3.81849 16.2983 3.68518 16.388 3.5327C16.4777 3.38023 16.5365 3.21158 16.561 3.03639C16.5856 2.8612 16.5753 2.68289 16.531 2.51164C16.4866 2.3404 16.4089 2.17957 16.3024 2.03835C16.1958 1.89712 16.0625 1.77826 15.91 1.68856C15.7576 1.59886 15.5889 1.54006 15.4137 1.51554C13.0746 1.17757 8.24525 1.78235 6.69771 6.45164C6.39532 7.34103 5.93284 8.50613 5.3992 9.82242C3.08679 15.5501 -0.070537 23.35 3.75383 27.2544L4.50981 28.0193L5.71938 29.2289C5.87871 34.4346 7.37985 39.5109 10.0774 43.966C10.2732 44.2609 10.5781 44.4659 10.925 44.536C11.2719 44.606 11.6325 44.5354 11.9273 44.3396C12.2222 44.1438 12.4272 43.8389 12.4972 43.492C12.5673 43.1451 12.4966 42.7845 12.3009 42.4897C10.3838 39.2528 9.14043 35.6619 8.64547 31.9326C12.4343 35.339 17.2814 38.7542 22.2887 38.7542C23.6354 38.757 24.9701 38.5004 26.2198 37.9983L26.4066 37.9004C26.9703 37.5672 27.4399 37.096 27.7713 36.5312C28.1027 35.9664 28.285 35.3266 28.301 34.6719C28.2298 32.9287 26.789 31.3723 23.8985 29.9226Z" fill="url(#paint0_linear_37_454)"/>
<path d="M34.8826 27.0765C34.8826 27.4303 35.0231 27.7697 35.2733 28.0199C35.5235 28.27 35.8628 28.4106 36.2166 28.4106C36.5705 28.4106 36.9098 28.27 37.16 28.0199C37.4102 27.7697 37.5507 27.4303 37.5507 27.0765C37.5507 19.0009 32.8725 17.0353 32.6769 16.9553C32.3524 16.8261 31.99 16.8303 31.6686 16.9668C31.3472 17.1034 31.0926 17.3614 30.9604 17.6846C30.8884 17.8473 30.8495 18.0228 30.846 18.2007C30.8424 18.3786 30.8742 18.5554 30.9396 18.7209C31.005 18.8864 31.1026 19.0373 31.2268 19.1647C31.351 19.2922 31.4992 19.3937 31.663 19.4634C31.7964 19.49 34.8826 20.9219 34.8826 27.0765Z" fill="url(#paint1_linear_37_454)"/>
<defs>
<linearGradient id="paint0_linear_37_454" x1="22.9876" y1="1.4375" x2="22.9876" y2="44.5624" gradientUnits="userSpaceOnUse">
<stop stop-color="#E4EFE1"/>
<stop offset="1" stop-color="#E4EFE1" stop-opacity="0"/>
</linearGradient>
<linearGradient id="paint1_linear_37_454" x1="34.1982" y1="16.8613" x2="34.1982" y2="28.4106" gradientUnits="userSpaceOnUse">
<stop stop-color="#E4EFE1"/>
<stop offset="1" stop-color="#E4EFE1" stop-opacity="0"/>
</linearGradient>
</defs>
</svg>
