<svg width="57" height="57" viewBox="0 0 57 57" fill="none" xmlns="http://www.w3.org/2000/svg">
<path d="M28.5754 53.3656C18.7488 53.3656 9.94538 47.5035 5.72638 37.6956C1.50443 27.8826 3.04844 14.0262 16.4157 6.79288C22.518 3.49183 29.96 2.72612 36.3295 4.74199C42.4654 6.68589 47.3623 11.0419 50.4924 17.3389C54.142 24.6801 54.313 32.8533 50.9614 39.7614C47.7118 46.4598 41.4591 51.2185 33.8049 52.8181C32.0436 53.1862 30.2937 53.3656 28.5754 53.3656ZM28.9603 7.45539C25.2837 7.45539 21.5351 8.3748 18.2378 10.1589C6.92271 16.2813 5.56652 27.641 9.24224 36.1838C13.5258 46.1402 22.8637 51.2017 33.0219 49.0713C39.5062 47.7165 44.79 43.7147 47.5183 38.0908C50.3485 32.2571 50.1831 25.3145 47.0651 19.0421C44.4078 13.6967 40.2958 10.0135 35.1736 8.39055C33.1939 7.76372 31.0897 7.45539 28.9603 7.45539Z" fill="url(#paint0_linear_37_444)"/>
<path d="M38.4302 37.7402C35.4448 37.7402 32.4232 35.8845 30.5444 32.8971C29.2628 30.859 28.6693 28.5374 28.8735 26.3597C29.092 24.0287 30.183 22.1345 31.9455 21.0262L31.954 21.0209C32.9571 20.3989 34.1376 20.0702 35.3677 20.0702C38.355 20.0702 41.376 21.923 43.2519 24.9054C44.5335 26.9435 45.127 29.2653 44.9228 31.4429C44.7043 33.7739 43.6133 35.6681 41.8509 36.7765C40.8483 37.407 39.6655 37.7402 38.4302 37.7402ZM33.6011 23.6674C32.6796 24.2488 32.103 25.3081 31.9771 26.6507C31.8367 28.1485 32.265 29.7776 33.1832 31.2376C34.4765 33.2942 36.5361 34.6231 38.4302 34.6231C39.0869 34.6231 39.6794 34.4598 40.1915 34.1378C41.1151 33.5569 41.6932 32.4965 41.8193 31.152C41.9597 29.654 41.5314 28.025 40.6132 26.565C39.3228 24.5132 37.2639 23.1874 35.3678 23.1874C34.7111 23.1874 34.1167 23.3489 33.6011 23.6674ZM26.4786 44.8061C25.5521 44.8061 24.6166 44.6329 23.6982 44.2913C22.2128 43.7388 20.9539 42.7962 20.1533 41.6368C19.2496 40.3283 19.0083 38.8334 19.4911 37.5352C20.1528 35.7561 22.0108 34.6509 24.3399 34.6509C25.2602 34.6509 26.1869 34.8221 27.0944 35.1596C28.5812 35.7126 29.8403 36.6562 30.6399 37.8168C31.5406 39.1243 31.7811 40.6192 31.3 41.9198C30.6525 43.7004 28.8059 44.8061 26.4786 44.8061ZM24.3399 37.7681C23.3771 37.7681 22.6027 38.1112 22.4127 38.6219C22.125 39.3955 23.0783 40.7349 24.7848 41.3696C25.3464 41.5784 25.932 41.6888 26.4786 41.6888C27.4297 41.6888 28.1902 41.3529 28.371 40.853L28.3759 40.8396C28.5471 40.3793 28.2596 39.8561 28.073 39.5852C27.6398 38.9563 26.887 38.4082 26.0078 38.0811C25.457 37.8764 24.8803 37.7681 24.3399 37.7681ZM19.5994 26.0472C18.3332 26.0472 17.2325 25.6158 16.4166 24.7999C15.4006 23.784 14.9766 22.2691 15.2534 20.6438C15.5035 19.1748 16.2939 17.7132 17.4791 16.528C18.9415 15.0654 20.7894 14.2266 22.5486 14.2266C23.8165 14.2266 24.9195 14.6594 25.7383 15.4781C26.7533 16.4932 27.1779 18.0069 26.9033 19.6311C26.6551 21.0991 25.8685 22.5574 24.6884 23.7374C23.2205 25.2053 21.3656 26.0472 19.5994 26.0472ZM22.5486 17.0654C21.5516 17.0654 20.4068 17.615 19.4865 18.5354C18.7248 19.297 18.202 20.2392 18.052 21.1203C17.9813 21.5353 17.9357 22.3043 18.424 22.7925C18.7676 23.1362 19.2529 23.2084 19.5994 23.2084C20.6034 23.2084 21.7554 22.6557 22.681 21.7301C23.4368 20.9743 23.9555 20.0368 24.1042 19.1579C24.1743 18.7429 24.2191 17.9738 23.7309 17.4855C23.3837 17.1383 22.8963 17.0654 22.5486 17.0654ZM15.314 35.1649C15.16 35.1646 15.0064 35.1506 14.855 35.1229C13.5599 34.8834 12.6759 33.7082 12.4725 32.6714C12.2608 31.5969 12.7246 30.6515 13.7116 30.1433C14.4114 29.7832 15.2265 29.7686 15.9491 30.098C17.0606 30.6073 17.6827 31.7987 17.723 32.7122C17.7472 33.2749 17.5825 33.7944 17.2465 34.2151C16.7604 34.827 16.0598 35.1649 15.314 35.1649ZM34.3521 17.319C34.222 17.3188 34.0923 17.3069 33.9644 17.2835C32.8707 17.0812 32.1239 16.0887 31.9521 15.2131C31.7734 14.3056 32.1651 13.5072 32.9988 13.0779C33.5898 12.7739 34.2781 12.7616 34.8886 13.0398C35.8272 13.4699 36.3525 14.4761 36.3866 15.2476C36.4071 15.7228 36.2679 16.1616 35.9842 16.5169C35.5736 17.0335 34.9817 17.319 34.3521 17.319Z" fill="url(#paint1_linear_37_444)"/>
<defs>
<linearGradient id="paint0_linear_37_444" x1="28.5001" y1="3.63428" x2="28.5001" y2="53.3656" gradientUnits="userSpaceOnUse">
<stop stop-color="#E4EFE1"/>
<stop offset="1" stop-color="#E4EFE1" stop-opacity="0"/>
</linearGradient>
<linearGradient id="paint1_linear_37_444" x1="28.6922" y1="12.8401" x2="28.6922" y2="44.8061" gradientUnits="userSpaceOnUse">
<stop stop-color="#E4EFE1"/>
<stop offset="1" stop-color="#E4EFE1" stop-opacity="0"/>
</linearGradient>
</defs>
</svg>
