<svg width="61" height="61" viewBox="0 0 61 61" fill="none" xmlns="http://www.w3.org/2000/svg">
<path d="M22.2141 33.7127C20.6306 33.7124 19.0841 33.2337 17.7772 32.3394C16.4704 31.4451 15.4642 30.1769 14.8905 28.7009C14.3169 27.2249 14.2024 25.6101 14.5623 24.068C14.9221 22.5259 15.7394 21.1285 16.9071 20.0588C17.3668 18.0579 17.6021 16.0119 17.6086 13.9588C17.6117 12.4239 17.3926 10.8966 16.9579 9.42449C16.8369 8.99076 16.8033 8.53729 16.8592 8.09047C16.915 7.64365 17.0592 7.2124 17.2833 6.82182C17.7141 6.01916 18.4451 5.41971 19.3166 5.15449L23.7696 3.86332C24.6297 3.61011 25.5547 3.70206 26.3481 4.11966C27.1416 4.53726 27.741 5.24763 28.0193 6.09999C28.5188 7.74866 29.1759 9.34542 29.9814 10.8682C30.9246 12.2836 32.1372 13.4996 33.5499 14.4468C35.5995 14.5509 37.5271 15.4526 38.9206 16.9592C40.3141 18.4657 41.063 20.4576 41.0073 22.5091C40.9515 24.5606 40.0955 26.5088 38.6222 27.9375C37.1489 29.3661 35.1752 30.1617 33.1229 30.1543C31.8083 30.1601 30.5138 29.8312 29.3613 29.1987C28.7189 30.55 27.7064 31.6915 26.4413 32.4905C25.1762 33.2895 23.7104 33.7133 22.2141 33.7127ZM24.7354 6.65915C24.6851 6.64929 24.6333 6.64929 24.5829 6.65915L20.1299 7.97065C19.9926 8.00982 19.8759 8.101 19.8046 8.22482C19.78 8.28269 19.7673 8.34493 19.7673 8.40782C19.7673 8.47071 19.78 8.53295 19.8046 8.59082C20.3164 10.3377 20.5766 12.1487 20.5773 13.969C20.5677 16.4089 20.2674 18.8389 19.6826 21.2077C19.6045 21.5205 19.4259 21.799 19.1743 22.0007C18.5478 22.5028 18.0533 23.1503 17.7339 23.8869C17.4146 24.6236 17.2799 25.4271 17.3417 26.2276C17.4034 27.0281 17.6597 27.8014 18.0883 28.4804C18.5169 29.1593 19.1048 29.7233 19.8009 30.1234C20.4971 30.5235 21.2803 30.7475 22.0827 30.776C22.8851 30.8046 23.6824 30.6367 24.4051 30.2871C25.1279 29.9374 25.7544 29.4166 26.2301 28.7698C26.7058 28.123 27.0163 27.3698 27.1348 26.5757C27.176 26.3085 27.2904 26.058 27.4653 25.8518C27.6401 25.6457 27.8687 25.492 28.1255 25.4078C28.3824 25.3236 28.6576 25.3121 28.9205 25.3747C29.1835 25.4373 29.424 25.5714 29.6154 25.7623C30.1859 26.3416 30.8904 26.7711 31.6667 27.0129C32.4429 27.2546 33.2667 27.3011 34.0652 27.1482C34.8637 26.9953 35.6121 26.6478 36.2441 26.1364C36.8761 25.625 37.3721 24.9655 37.6882 24.2165C38.0043 23.4675 38.1307 22.652 38.0562 21.8425C37.9816 21.0329 37.7085 20.2542 37.261 19.5755C36.8134 18.8968 36.2053 18.339 35.4906 17.9516C34.7759 17.5641 33.9766 17.359 33.1636 17.3545H33.0721C32.7734 17.356 32.4817 17.2636 32.2384 17.0902C30.3356 15.8586 28.7058 14.2496 27.4499 12.3627C26.5374 10.6607 25.7951 8.87288 25.2336 7.02515C25.2009 6.91875 25.1348 6.82571 25.045 6.7598C24.9553 6.69388 24.8468 6.6586 24.7354 6.65915ZM32.7468 56.9333H27.2771C26.4026 56.9306 25.5647 56.5813 24.9473 55.962C24.3298 55.3426 23.9831 54.5037 23.9831 53.6292V45.75L20.7704 39.4975C20.5129 38.994 20.3889 38.4329 20.4103 37.8679C20.4317 37.3028 20.5978 36.7526 20.8926 36.2701C21.1874 35.7876 21.6012 35.3888 22.0942 35.1119C22.5873 34.835 23.1431 34.6893 23.7086 34.6887H26.3316C26.7486 34.1683 27.2829 33.7542 27.8908 33.4803C28.4988 33.2064 29.1629 33.0804 29.8289 33.1128C30.4962 33.0821 31.1613 33.2087 31.7706 33.4825C32.3799 33.7562 32.9163 34.1694 33.3364 34.6887H36.3153C36.8808 34.6893 37.4366 34.835 37.9297 35.1119C38.4227 35.3888 38.8365 35.7876 39.1313 36.2701C39.4261 36.7526 39.5922 37.3028 39.6136 37.8679C39.635 38.4329 39.511 38.994 39.2534 39.4975L36.0509 45.75V53.6088C36.0523 54.0441 35.9679 54.4753 35.8025 54.8779C35.6372 55.2806 35.3942 55.6467 35.0874 55.9554C34.7806 56.2641 34.4159 56.5093 34.0143 56.6771C33.6127 56.8449 33.182 56.932 32.7468 56.9333ZM23.7086 37.6167C23.6439 37.6141 23.5798 37.6288 23.5226 37.6592C23.4655 37.6895 23.4174 37.7345 23.3833 37.7895C23.3521 37.8454 23.3358 37.9084 23.3358 37.9725C23.3358 38.0365 23.3521 38.0995 23.3833 38.1555L26.7484 44.7333C26.8491 44.9427 26.9012 45.172 26.9009 45.4043V53.619C26.8996 53.6679 26.908 53.7166 26.9258 53.7622C26.9436 53.8078 26.9704 53.8493 27.0045 53.8844C27.0386 53.9195 27.0794 53.9473 27.1245 53.9664C27.1696 53.9854 27.218 53.9952 27.2669 53.9952H32.7366C32.8364 53.9952 32.9321 53.9555 33.0026 53.885C33.0731 53.8144 33.1128 53.7188 33.1128 53.619V45.4145C33.1111 45.1809 33.167 44.9504 33.2754 44.7435L36.6406 38.1758C36.6711 38.1191 36.686 38.0553 36.6839 37.991C36.6819 37.9266 36.6628 37.864 36.6288 37.8093C36.5948 37.7547 36.5469 37.7099 36.4901 37.6797C36.4333 37.6494 36.3695 37.6347 36.3051 37.637H32.3604C32.0052 37.6376 31.6618 37.5091 31.3943 37.2752C31.1268 37.0414 30.9535 36.7183 30.9066 36.3662C30.5933 36.1433 30.2126 36.0355 29.8289 36.0612C29.4457 36.0388 29.066 36.1463 28.7513 36.3662C28.6999 36.7146 28.5246 37.0329 28.2576 37.2626C27.9906 37.4923 27.6497 37.618 27.2974 37.6167H23.7086Z" fill="url(#paint0_linear_37_451)"/>
<path opacity="0.6" d="M48.5661 32.5333H42.7C42.4888 32.4717 42.3033 32.3433 42.1713 32.1673C42.0393 31.9913 41.968 31.7773 41.968 31.5573C41.968 31.3373 42.0393 31.1233 42.1713 30.9473C42.3033 30.7713 42.4888 30.6429 42.7 30.5813H48.556C48.7075 30.5371 48.8672 30.5288 49.0225 30.5571C49.1778 30.5853 49.3244 30.6493 49.4506 30.744C49.5769 30.8387 49.6794 30.9615 49.75 31.1027C49.8205 31.2438 49.8573 31.3995 49.8573 31.5573C49.8573 31.7152 49.8205 31.8708 49.75 32.012C49.6794 32.1532 49.5769 32.276 49.4506 32.3707C49.3244 32.4654 49.1778 32.5294 49.0225 32.5576C48.8672 32.5858 48.7075 32.5775 48.556 32.5333H48.5661ZM42.1408 29.1783C42.0123 29.1798 41.8849 29.1553 41.7661 29.1064C41.6473 29.0575 41.5396 28.9851 41.4495 28.8937C41.2751 28.7057 41.1782 28.4587 41.1782 28.2023C41.1782 27.9459 41.2751 27.699 41.4495 27.511L45.5873 23.3833C45.7804 23.2759 46.0033 23.2343 46.2222 23.2649C46.4411 23.2955 46.6441 23.3966 46.8004 23.5529C46.9567 23.7092 47.0578 23.9121 47.0884 24.131C47.119 24.3499 47.0774 24.5728 46.97 24.766L42.8321 28.9038C42.7411 28.9935 42.633 29.0639 42.5143 29.1111C42.3955 29.1582 42.2685 29.1811 42.1408 29.1783ZM46.2786 39.9753C46.0204 39.9717 45.7732 39.8699 45.5873 39.6907L41.4495 35.5833C41.342 35.3902 41.3005 35.1673 41.3311 34.9484C41.3617 34.7295 41.4628 34.5265 41.619 34.3702C41.7753 34.214 41.9783 34.1128 42.1972 34.0822C42.4161 34.0517 42.639 34.0932 42.8321 34.2007L46.97 38.3487C47.1414 38.5361 47.2365 38.7809 47.2365 39.0349C47.2365 39.2889 47.1414 39.5337 46.97 39.7212C46.8773 39.8071 46.7684 39.8739 46.6498 39.9175C46.5311 39.9611 46.4049 39.9808 46.2786 39.9753Z" fill="url(#paint1_linear_37_451)"/>
<defs>
<linearGradient id="paint0_linear_37_451" x1="27.6834" y1="3.72302" x2="27.6834" y2="56.9333" gradientUnits="userSpaceOnUse">
<stop stop-color="#E4EFE1"/>
<stop offset="1" stop-color="#E4EFE1" stop-opacity="0"/>
</linearGradient>
<linearGradient id="paint1_linear_37_451" x1="45.5178" y1="23.2551" x2="45.5178" y2="39.9762" gradientUnits="userSpaceOnUse">
<stop stop-color="#E4EFE1"/>
<stop offset="1" stop-color="#E4EFE1" stop-opacity="0"/>
</linearGradient>
</defs>
</svg>
